<?xml version="1.0" standalone="no"?>
<!DOCTYPE svg PUBLIC "-//W3C//DTD SVG 1.1//EN" "http://www.w3.org/Graphics/SVG/1.1/DTD/svg11.dtd" >
<svg xmlns="http://www.w3.org/2000/svg">
<metadata>
<json>
<![CDATA[
{
	"fontFamily": "icomoon",
	"fontURL": "https://wp-cocoon.com/",
	"license": "GNU GENERAL PUBLIC LICENSE（GPL）",
	"licenseURL": "https://wp-cocoon.com/terms-of-use/",
	"description": "Icon font organized for Cocoon. Created by IcoMoon.\nFont generated by IcoMoon.",
	"copyright": "yhira",
	"majorVersion": 1,
	"minorVersion": 5,
	"version": "Version 1.5",
	"fontId": "icomoon",
	"psName": "icomoon",
	"subFamily": "Regular",
	"fullName": "icomoon"
}
]]>
</json>
</metadata>
<defs>
<font id="icomoon" horiz-adv-x="1024">
<font-face units-per-em="1024" ascent="896" descent="-128" />
<missing-glyph horiz-adv-x="1024" />
<glyph unicode="&#x20;" d="" />
<glyph unicode="&#xe960;" glyph-name="download" data-tags="download, save, store, arrow" d="M512 320l256 256h-192v256h-128v-256h-192zM744.726 424.728l-71.74-71.742 260.080-96.986-421.066-157.018-421.066 157.018 260.080 96.986-71.742 71.742-279.272-104.728v-256l512-192 512 192v256z" />
<glyph unicode="&#xea36;" glyph-name="arrow-down" data-tags="arrow-down, down, download, bottom" d="M512-96l480 480h-288v512h-384v-512h-288z" />
<glyph unicode="&#xf00c;" glyph-name="check" data-tags="check" d="M347.796 17.191l-332.8 332.8c-19.994 19.994-19.994 52.412 0 72.408l72.406 72.408c19.994 19.996 52.414 19.996 72.408 0l224.19-224.19 480.19 480.19c19.994 19.994 52.414 19.994 72.408 0l72.406-72.408c19.994-19.994 19.994-52.412 0-72.408l-588.8-588.802c-19.996-19.994-52.414-19.994-72.406 0.002z" />
<glyph unicode="&#xf013;" glyph-name="cog" data-tags="cog" d="M974.8 264.6c9.799-5.6 14.199-17.199 11.199-28.199-22.199-71.4-60-135.801-109.4-189.201-7.6-8.398-19.799-10.199-29.6-4.6l-85.199 49.201c-36-30.602-77.201-54.4-121.602-70.201v-98.4c0-11.199-7.799-21-18.799-23.398-69.801-15.602-145-16.4-218.4 0-11 2.398-18.801 12.199-18.801 23.398v98.4c-44.6 15.6-85.799 39.4-121.6 70.201l-85.199-49.201c-9.6-5.6-22-3.6-29.6 4.6-49.4 53.602-87.201 118-109.4 189.201-3.201 10.799 1.199 22.4 11 28l85.199 49.199c-8.6 46.4-8.6 94 0 140.4l-85.199 49.199c-9.801 5.602-14.4 17.201-11 28 22.199 71.4 60 135.801 109.4 189.201 7.6 8.4 19.799 10.199 29.6 4.6l85-49.199c36 30.6 77.199 54.398 121.6 70.199v98.4c0 11.199 7.801 21 18.801 23.4 69.799 15.6 145 16.398 218.398 0 11-2.4 18.801-12.201 18.801-23.4v-98.201c44.6-15.6 85.801-39.398 121.6-70.199l85.201 49.199c9.6 5.602 22 3.602 29.6-4.6 49.4-53.6 87.199-118 109.4-189.199 3.199-10.801-1.201-22.4-11-28l-85.201-49.201c8.6-46.398 8.6-94 0-140.398zM512 224c88.199 0 160 71.801 160 160s-71.801 160-160 160-160-71.801-160-160 71.801-160 160-160z" />
<glyph unicode="&#xf062;" glyph-name="arrow-up" data-tags="arrow-up" horiz-adv-x="896" d="M69.801 317l-44.4 44.4c-18.801 18.799-18.801 49.199 0 67.799l388.6 388.8c18.801 18.801 49.199 18.801 67.801 0l388.6-388.6c18.799-18.801 18.799-49.201 0-67.801l-44.4-44.4c-19-19-50-18.6-68.6 0.801l-229.4 240.8v-574.8c0-26.6-21.4-48-48-48h-64c-26.6 0-48 21.4-48 48v574.8l-229.6-241c-18.6-19.602-49.6-20-68.6-0.801z" />
<glyph unicode="&#xf063;" glyph-name="arrow-down1" data-tags="arrow-down" horiz-adv-x="896" d="M826.2 451l44.4-44.4c18.801-18.799 18.801-49.199 0-67.799l-388.6-388.8c-18.801-18.801-49.199-18.801-67.801 0l-388.798 388.8c-18.801 18.799-18.801 49.199 0 67.799l44.4 44.4c19 19 50 18.6 68.6-0.801l229.6-241v574.8c0 26.6 21.4 48 48 48h64c26.6 0 48-21.4 48-48v-574.8l229.6 241c18.6 19.602 49.6 20 68.6 0.801z" />
<glyph unicode="&#xf067;" glyph-name="plus" data-tags="plus" horiz-adv-x="896" d="M832 480c35.34 0 64-28.66 64-64v-64c0-35.34-28.66-64-64-64h-288v-288c0-35.34-28.66-64-64-64h-64c-35.34 0-64 28.66-64 64v288h-288c-35.34 0-64 28.66-64 64v64c0 35.34 28.66 64 64 64h288v288c0 35.34 28.66 64 64 64h64c35.34 0 64-28.66 64-64v-288h288z" />
<glyph unicode="&#xf068;" glyph-name="minus" data-tags="minus" horiz-adv-x="896" d="M832 480c35.34 0 64-28.66 64-64v-64c0-35.34-28.66-64-64-64h-768c-35.34 0-64 28.66-64 64v64c0 35.34 28.66 64 64 64h768z" />
<glyph unicode="&#xf06e;" glyph-name="eye" data-tags="eye" horiz-adv-x="1152" d="M1145.040 413.2c4.428-8.756 6.922-18.779 6.922-29.252 0-10.475-2.494-20.371-6.922-29.127-108.398-211.542-323.18-354.82-569.040-354.82s-460.58 143.18-569.040 354.8c-4.428 8.756-6.922 18.779-6.922 29.252 0 10.475 2.494 20.371 6.922 29.127 108.398 211.542 323.18 354.82 569.040 354.82s460.58-143.18 569.040-354.8zM576 96c0.047 0 0.092-0.002 0.141-0.002 158.873 0 287.86 128.984 287.86 287.86v0.143c0 158.951-129.049 288-288 288s-288-129.049-288-288 129.049-288 288-288zM576 576c0.152 0 0.32-0.055 0.475-0.055 105.725 0 191.561-85.834 191.561-191.559s-85.836-191.561-191.561-191.561-191.561 85.836-191.561 191.561c0 17.379 2.32 34.221 6.666 50.232 15.863-11.672 35.486-18.535 56.672-18.535 52.818 0 95.699 42.881 95.699 95.699 0 21.188-6.898 40.773-18.57 56.637 16.092 4.686 33.082 7.336 50.619 7.58z" />
<glyph unicode="&#xf070;" glyph-name="eye-slash" data-tags="eye-slash" horiz-adv-x="1280" d="M640 96c17.826 0.166 35.084 1.953 52 5.221l103.779-80.301c-50.039-12.92-101.959-20.92-155.779-20.92-245.86 0-460.58 143.18-569.040 354.8-4.428 8.756-6.922 18.779-6.922 29.252 0 10.475 2.494 20.371 6.922 29.127 20.479 40 45.859 76.58 73.439 111.18l209.798-162.139c11.301-148.801 134.102-266.22 285.8-266.22zM1267.64-20.199c7.537-5.857 12.354-15.020 12.354-25.295 0-7.385-2.506-14.188-6.715-19.605l-39.279-50.541c-5.857-7.537-15.018-12.352-25.293-12.352-7.395 0-14.205 2.514-19.627 6.732l-1176.72 909.458c-7.531 5.857-12.342 15.016-12.342 25.285 0 7.389 2.51 14.197 6.723 19.615l39.26 50.541c5.857 7.537 15.018 12.352 25.293 12.352 7.395 0 14.205-2.514 19.627-6.732l254.44-196.66c87.369 47.713 188.193 75.271 294.64 75.4 245.86 0 460.58-143.18 569.040-354.8 4.428-8.756 6.922-18.779 6.922-29.252 0-10.475-2.494-20.371-6.922-29.127-40.422-78.777-95.381-147.576-162.5-204.14zM900.2 263.8c17.221 36.641 27.801 76.939 27.801 120.199 0 0.055 0.004 0.105 0.004 0.16 0 158.863-128.977 287.84-287.84 287.84h-0.164c-69.266-0.051-132.951-24.98-182.301-66.221l147.221-113.779c1.715 6.41 2.777 13.125 3.080 20-0.037 21.078-6.98 40.648-18.619 56.42 16.863 4.924 34.672 7.641 53.115 7.641 104.6 0 189.521-84.92 189.521-189.52 0-0.848-0.006-1.695-0.018-2.541-0.277-20.754-3.951-40.803-10.4-59.439z" />
<glyph unicode="&#xf077;" glyph-name="chevron-up" data-tags="chevron-up" horiz-adv-x="896" d="M481.942 634.952l388.688-388.686c18.744-18.746 18.744-49.137 0-67.881l-45.334-45.334c-18.715-18.715-49.045-18.75-67.803-0.080l-309.492 308.040-309.49-308.042c-18.758-18.67-49.088-18.635-67.803 0.080l-45.334 45.334c-18.744 18.746-18.744 49.137 0 67.881l388.688 388.686c18.744 18.746 49.135 18.746 67.881 0.002z" />
<glyph unicode="&#xf078;" glyph-name="chevron-down" data-tags="chevron-down" horiz-adv-x="896" d="M414.058 133.049l-388.688 388.688c-18.744 18.746-18.744 49.137 0 67.881l45.334 45.334c18.715 18.715 49.045 18.75 67.803 0.080l309.492-308.042 309.49 308.042c18.758 18.67 49.088 18.635 67.803-0.080l45.334-45.334c18.744-18.746 18.744-49.137 0-67.881l-388.686-388.688c-18.746-18.744-49.137-18.744-67.883 0z" />
<glyph unicode="&#xf07b;" glyph-name="folder" data-tags="folder" d="M928 640c53.020 0 96-42.98 96-96v-448c0-53.020-42.98-96-96-96h-832c-53.020 0-96 42.98-96 96v576c0 53.020 42.98 96 96 96h320l128-128h384z" />
<glyph unicode="&#xf07c;" glyph-name="folder-open" data-tags="folder-open" horiz-adv-x="1152" d="M1145.388 311.814l-144.85-248.31c-22.193-38.049-63.373-63.504-110.561-63.504h-799.928c-37.047 0-60.129 40.186-41.463 72.186l144.848 248.31c22.197 38.049 63.375 63.504 110.564 63.504h799.928c37.047 0 60.129-40.186 41.461-72.186zM304 448c-68.021 0-131.572-36.5-165.846-95.256l-138.154-236.836v556.092c0 53.020 42.98 96 96 96h320l128-128h320c53.020 0 96-42.98 96-96v-96h-656z" />
<glyph unicode="&#xf09b;" glyph-name="github" data-tags="github" horiz-adv-x="992" d="M331.8 101.199c0-4-4.602-7.199-10.4-7.199-6.6-0.6-11.201 2.6-11.201 7.199 0 4 4.602 7.201 10.4 7.201 6 0.6 11.201-2.6 11.201-7.201zM269.6 110.199c1.4 4 7.201 6 12.4 4.602 6-1.801 9.801-6.4 8.6-10.4-1.199-4-7.199-6-12.4-4-6 1.199-10 5.799-8.6 9.799zM358 113.6c5.801 0.6 11.199-2 11.801-5.799 0.6-4-3.4-7.801-9.201-9.201-6-1.4-11.199 1.201-11.799 5.201-0.602 4.6 3.398 8.398 9.199 9.799zM489.6 880c277.4 0 502.4-210.6 502.4-488 0-221.8-135.6-411.6-335.6-478-25.4-4.6-34.6 11.199-34.6 24.199 0 16.4 0.6 99.801 0.6 167.201 0 47-15.6 77-34 92.799 111.799 12.602 229.6 28 229.6 221 0 54.801-19.6 82.4-51.6 117.801 5.199 13 22.199 66.4-5.201 135.801-41.799 13.199-138-54-138-54-40 11.199-83 17-125.6 17s-85.6-5.801-125.6-17c0 0-96.199 67-138 54-27.4-69.201-10.4-122.801-5.199-135.801-32-35.199-47.201-62.801-47.201-117.801 0-192.398 112.801-208.6 224.6-221-14.398-13.199-27.398-35.398-32-67.398-28.6-13.201-102-35.4-145.799 41.799-27.4 47.6-77.201 51.6-77.201 51.6-49 0.602-3.199-30.799-3.199-30.799 32.801-15 55.6-73.201 55.6-73.201 29.4-89.6 169.4-59.6 169.4-59.6 0-42 0.6-110.4 0.6-122.799 0-13-9-28.801-34.6-24.201-199.4 66.801-339 256.6-339 478.4 0 277.4 212.2 488 489.6 488zM194.4 190.199c2.6 2.602 7.199 1.201 10.4-2 3.398-3.799 4-8.398 1.398-10.398-2.6-2.602-7.199-1.201-10.398 2-3.4 3.799-4 8.398-1.4 10.398zM172.801 206.4c1.398 2 4.6 2.6 8.6 1.4 4-2 6-5.201 4.6-7.801-1.4-2.801-5.4-3.4-8.6-1.4-4 2-6 5.201-4.6 7.801zM237.6 135.199c2.6 3.201 8.6 2.602 13-2 4-3.799 5.201-9.799 2.6-12.398-2.6-3.201-8.398-2.602-13 2-4.6 3.799-5.799 9.799-2.6 12.398zM214.8 164.6c3.199 2.6 8.398 0.6 11.199-4 3.199-4.6 3.199-9.799 0-12.4-2.6-2-8 0-11.199 4.602-3.201 4.6-3.201 9.799 0 11.799z" />
<glyph unicode="&#xf106;" glyph-name="angle-up" data-tags="angle-up" horiz-adv-x="640" d="M354 576.6l272-272c18.801-18.799 18.801-49.199 0-67.799l-45.199-45.201c-18.801-18.799-49.201-18.799-67.801 0l-193 192.6-192.801-192.799c-18.799-18.801-49.199-18.801-67.799 0l-45.4 45.199c-18.801 18.801-18.801 49.201 0 67.801l272 272c18.801 19 49.199 19 68 0.199z" />
<glyph unicode="&#xf107;" glyph-name="angle-down" data-tags="angle-down" horiz-adv-x="640" d="M286 191.4l-272 272c-18.801 18.799-18.801 49.199 0 67.799l45.199 45.201c18.801 18.799 49.201 18.799 67.801 0l192.801-192.801 192.799 192.801c18.801 18.799 49.201 18.799 67.801 0l45.199-45.201c18.801-18.799 18.801-49.199 0-67.799l-272-272c-18.4-18.801-48.799-18.801-67.6 0z" />
<glyph unicode="&#xf15b;" glyph-name="file" data-tags="file" horiz-adv-x="768" d="M448 624c0-26.4 21.6-48 48-48h272v-656c0-26.6-21.4-48-48-48h-672c-26.6 0-48 21.4-48 48v928c0 26.6 21.4 48 48 48h400v-272zM768 652.2v-12.199h-256v256h12.199c12.801 0 25-5 34-14l195.801-196c9-9 14-21.199 14-33.801z" />
<glyph unicode="&#xf1f8;" glyph-name="trash" data-tags="trash" horiz-adv-x="896" d="M864 832c17.662 0 32-14.338 32-32v-64c0-17.662-14.338-32-32-32h-832c-17.662 0-32 14.338-32 32v64c0 17.662 14.338 32 32 32h240l18.801 37.4c7.711 15.771 23.887 26.6 42.613 26.6h228.786c0.012 0-0.004 0.047 0.008 0.047 18.822 0 35.129-10.857 42.992-26.646l18.801-37.4h240zM106.4-38l-42.4 678h768l-42.4-678c-3.141-50.152-44.863-89.994-95.799-90h-491.602c-50.936 0.006-92.658 39.848-95.799 90z" />
<glyph unicode="&#xf245;" glyph-name="mouse-pointer" data-tags="mouse-pointer" horiz-adv-x="640" d="M604.378 237.748h-212.168l111.66-271.986c7.779-18.855-1.109-39.998-18.887-47.998l-98.33-42.854c-18.33-8-38.887 1.143-46.664 19.428l-106.105 258.272-173.328-178.275c-23.1-23.754-60.557-5.441-60.557 25.713v859.356c0 32.799 39.842 48.789 60.555 25.711l568.824-585.084c22.943-22.357 6.014-62.281-25-62.281z" />
<glyph unicode="&#xf24d;" glyph-name="clone" data-tags="clone" d="M928 896c53.020 0 96-42.98 96-96v-576c0-53.020-42.98-96-96-96h-576c-53.020 0-96 42.98-96 96v576c0 53.020 42.98 96 96 96h576zM352 64h416v-96c0-53.020-42.98-96-96-96h-576c-53.020 0-96 42.98-96 96v576c0 53.020 42.98 96 96 96h96v-416c0-88.225 71.775-160 160-160z" />
<glyph unicode="&#xf267;" glyph-name="safari" data-tags="safari" d="M549.38 346.62l-217.38-142.619 142.619 217.38zM512 880c274 0 496-222 496-496s-222-496-496-496-496 222-496 496 222 496 496 496zM823.7 530.42c-5.773-2.416-9.816-8.125-9.816-14.771 0-2.17 0.432-4.24 1.217-6.129v0c2.404-5.801 8.127-9.869 14.793-9.869 2.162 0 4.225 0.43 6.107 1.209l29.5 12.221c5.805 2.402 9.877 8.127 9.877 14.795 0 2.17-0.434 4.238-1.217 6.125v0c-2.4 5.811-8.127 9.887-14.799 9.887-2.16 0-4.221-0.43-6.102-1.207zM628.86 708c-0.793-1.898-1.25-3.984-1.25-6.17 0-6.668 4.088-12.387 9.891-14.791v0c1.883-0.777 3.949-1.227 6.111-1.227 6.666 0 12.385 4.086 14.789 9.887l12.26 29.561c0.779 1.883 1.227 3.949 1.227 6.111 0 6.666-4.086 12.385-9.887 14.789v0c-1.889 0.785-3.961 1.236-6.133 1.236-6.646 0-12.352-4.063-14.768-9.836zM512 776c-8.83 0-16-7.17-16-16v-32c0-8.83 7.17-16 16-16v0c8.83 0 16 7.17 16 16v32c0 8.83-7.17 16-16 16v0zM362 746.16c-5.799-2.404-9.865-8.125-9.865-14.791 0-2.139 0.422-4.182 1.186-6.049l12.26-29.561c2.33-5.955 8.115-10.156 14.891-10.156 8.832 0 16 7.17 16 16 0 2.273-0.475 4.438-1.33 6.396l-12.221 29.5c-2.402 5.805-8.127 9.877-14.795 9.877-2.17 0-4.238-0.434-6.125-1.217zM234.84 661.18c-2.895-2.896-4.705-6.898-4.705-11.313 0-4.383 1.768-8.355 4.625-11.248l22.621-22.619c2.895-2.895 6.898-4.686 11.311-4.686 4.414 0 8.412 1.791 11.309 4.686v0c2.877 2.893 4.654 6.885 4.654 11.283 0 4.396-1.777 8.383-4.654 11.277l-22.539 22.619c-2.896 2.895-6.9 4.686-11.313 4.686-4.414 0-8.412-1.791-11.309-4.686v0zM120 384c0-8.83 7.17-16 16-16h32c8.83 0 16 7.17 16 16v0c0 8.83-7.17 16-16 16h-32c-8.83 0-16-7.17-16-16v0zM200.3 237.58c5.773 2.416 9.816 8.125 9.816 14.771 0 2.17-0.432 4.24-1.217 6.129v0c-2.404 5.801-8.127 9.869-14.793 9.869-2.162 0-4.225-0.43-6.107-1.209l-29.5-12.221c-5.805-2.402-9.877-8.127-9.877-14.795 0-2.17 0.434-4.238 1.217-6.125v0c2.4-5.811 8.127-9.887 14.799-9.887 2.16 0 4.221 0.43 6.102 1.207zM208.96 509.58c0.773 1.879 1.219 3.879 1.219 6.033 0 6.664-4.082 12.381-9.879 14.787l-29.561 12.26c-1.883 0.779-3.949 1.227-6.111 1.227-6.666 0-12.385-4.086-14.789-9.887v0c-0.785-1.889-1.236-3.961-1.236-6.133 0-6.646 4.063-12.352 9.836-14.768l29.561-12.24c1.891-0.787 3.967-1.238 6.143-1.238 6.693 0 12.432 4.119 14.818 9.959v0zM395.14 60c0.855 1.959 1.346 4.143 1.346 6.416 0 8.832-7.17 16-16 16-6.777 0-12.576-4.221-14.906-10.176l-12.26-29.561c-0.779-1.883-1.223-3.967-1.223-6.131 0-8.834 7.172-16.006 16.006-16.006 6.67 0 12.395 4.090 14.797 9.896zM528 8v32c0 8.83-7.17 16-16 16v0c-8.83 0-16-7.17-16-16v-32c0-8.83 7.17-16 16-16v0c8.83 0 16 7.17 16 16zM662 21.84c5.799 2.404 9.865 8.125 9.865 14.791 0 2.139-0.422 4.182-1.186 6.049l-12.26 29.561c-2.404 5.801-8.127 9.869-14.793 9.869-2.162 0-4.225-0.43-6.107-1.209v0c-5.801-2.404-9.869-8.127-9.869-14.793 0-2.162 0.43-4.225 1.209-6.107l12.221-29.5c2.402-5.805 8.127-9.877 14.795-9.877 2.17 0 4.238 0.434 6.125 1.217v0zM789.16 106.82c2.895 2.896 4.705 6.898 4.705 11.313 0 4.383-1.768 8.355-4.625 11.248l-22.621 22.619c-2.895 2.895-6.898 4.686-11.311 4.686s-8.412-1.791-11.309-4.686v0c-2.877-2.893-4.654-6.885-4.654-11.283 0-4.396 1.777-8.383 4.654-11.277l22.539-22.619c2.896-2.895 6.9-4.686 11.313-4.686s8.412 1.791 11.309 4.686v0zM572.5 323.5l230.82 351.82-351.82-230.82-230.82-351.82zM874.16 234c0.785 1.889 1.236 3.961 1.236 6.133 0 6.646-4.063 12.352-9.836 14.768l-29.561 12.24c-1.898 0.793-3.984 1.25-6.17 1.25-6.668 0-12.387-4.088-14.791-9.891v0c-0.777-1.883-1.227-3.949-1.227-6.111 0-6.666 4.086-12.385 9.887-14.789l29.561-12.26c1.883-0.779 3.949-1.227 6.111-1.227 6.666 0 12.385 4.086 14.789 9.887v0zM888 368c8.83 0 16 7.17 16 16v0c0 8.83-7.17 16-16 16h-32c-8.83 0-16-7.17-16-16v0c0-8.83 7.17-16 16-16h32z" />
<glyph unicode="&#xf268;" glyph-name="chrome" data-tags="chrome" horiz-adv-x="992" d="M263 461l-152.801 234.8c95.201 118.398 238 183.6 384 184.199 84.602 0.6 171-21 249.602-66.4 86.799-50.4 152.799-122.799 194.799-206l-410.6 21.6c-116.199 6.801-226.8-58.6-265-168.199zM328.8 384c0 92.6 74.799 167.199 167.199 167.199s167.199-74.799 167.199-167.199-74.799-167.199-167.199-167.199-167.199 74.799-167.199 167.199zM958.6 562.4c87-223.8 0-483.8-214.798-607.8-86.801-50.4-182.602-70.799-275.602-65.799l224.202 344.798c63.799 98 62.6 225.8-13.201 314.4zM267.4 288.8c52.6-103.4 163.799-166.602 279-145l-127.4-249.602c-237.4 36.4-419 241.8-419 489.8 0 100.199 29.801 193.801 80.801 271.8z" />
<glyph unicode="&#xf269;" glyph-name="firefox" data-tags="firefox" d="M1007.040 413.040c0.48-8.879 0.721-18 0.961-27.039 0-274.38-222.46-496.84-496.64-496.84-245.558 0-449.718 178.539-489.558 412.76-0.721 6.48-1.441 12.721-2.16 19.199-9.84 85.201 0.959 174.721 32.16 249.58 21.6 51.762 65.279 108 99.6 125.762-32.4-63.602-48.24-126-51.6-167.762 22.559 74.4 65.26 136.721 125.020 180.721 102.48 75.34 240.458 78.721 295.42 30.721-102-35.021-213.1-175.92-188.621-341.022 4.012-27.582 12.426-54.316 24.24-78.479-19.039 50.16-20.719 120.719 10 166.559 34.32 51.102 83.26 61.9 109.42 56.381-10.318 2.16-33.119-41.5-36.479-49.18-7.992-18.197-12.502-38.373-12.502-59.508 0-0.832 0.008-1.664 0.021-2.492 0.785-46.236 20.209-88.018 51.119-118 95.301-92.861 249.122-56.32 318 49.68 47.281 72.959 53.041 196.779-7.68 295.18-15.258 24.16-33.139 45.928-53.76 65.52-95.32 90.941-232.12 129.34-360.48 105.98-0.48 0-1.199-0.24-1.68-0.24-3.6-0.719-6.959-1.439-10.32-2.16-0.719-0.24-1.68-0.24-2.4-0.479l-11.76-2.881c-29.039-7.119-69.6-21.6-98.879-39.119-0.188-0.027-0.354-0.113-0.48-0.24l0.24 0.24c0-0.133-0.107-0.24-0.24-0.24v0h-0.26l0.959 0.959c0.961 0.961 2.641 2.32 4.801 4.32 39.359 35.52 98.641 63.84 165.82 78 29.477 6.195 59.738 9.631 90.959 10h21.26c25.973-0.623 51.225-3.344 76-8 1.922-0.24 3.521-0.721 5.521-0.959h0.24c3.6-0.721 7.439-1.682 11.279-2.4 38.535-8.75 76.195-22.152 110.859-39.121 4.801-2.4 9.6-4.799 14.4-7.439 17.35-8.643 33.781-18.758 49.199-30.24 8.641-6.24 16.961-12.721 24.961-19.68 13.016-10.389 25.066-21.395 36.58-33.4 17.021-16.713 32.529-34.281 47.020-53.279 1.92-2.4 3.52-4.801 5.52-7.439 0.801-0.961 1.281-1.682 2-2.641l3.602-5.041c0.719-0.959 1.439-2.16 2.16-3.119 0.959-1.439 2.158-3.121 3.119-4.561 0.883-1.143 1.68-2.34 2.4-3.6l2.879-4.26c0.883-1.143 1.682-2.34 2.4-3.6 0.961-1.441 1.92-3.121 2.641-4.32 0.719-1.201 1.68-2.48 2.4-3.84s1.68-2.641 2.398-4c0.721-1.361 1.682-2.561 2.4-4 0.883-1.277 1.686-2.611 2.4-4 0.721-1.441 1.68-3.121 2.4-4.32s1.439-2.641 2.16-3.84c0.719-1.68 1.6-3.359 2.4-4.561 0.799-1.199 1.279-2.4 2-3.6 0.719-1.68 1.68-3.121 2.398-4.801 0.48-0.959 0.961-2.16 1.441-3.119 0.959-1.68 1.68-3.279 2.639-5.279l0.721-1.441c3.52-7.439 6.881-15.119 10-22.799 0-0.24 0.24-0.48 0.24-0.721 0.879-2.4 1.92-4.561 2.879-6.961 0.24-0.479 0.48-1.199 0.721-1.68 0.961-2.16 1.68-4.559 2.641-6.719 0.277-0.643 0.523-1.32 0.719-2 0.721-2.16 1.682-4.561 2.4-6.721l0.721-2.16c0.959-2.4 1.68-4.561 2.4-6.959 0.238-0.801 0.479-1.281 0.719-2 0.721-2.16 1.441-4.561 2.16-6.961 0.24-0.48 0.24-1.199 0.48-1.68 0.721-2.4 1.439-5.041 2.16-7.439 0.24-0.24 0.24-0.721 0.48-1.201l2.16-8c0.238-0.24 0.238-0.24 0.238-0.48 7.086-26.51 12.082-54.23 14.641-82.299v-0.24l0.721-9.359v-0.24c0-3.121 0.24-6.24 0.479-9.361z" />
<glyph unicode="&#xf26a;" glyph-name="opera" data-tags="opera" horiz-adv-x="992" d="M627.8 830.6c-340.4 0-505.202-447.6-295-710.2 73-90.801 177.199-151.201 295-151.201 72.6 0 140.6 22.201 198.799 60.801-87.6-78.4-203.798-126-330.6-126-7.801 0-16 0-23.801 0.6-263 12.201-472.2 229.202-472.2 495.4 0 274 222 496 496 496h1.6c126.201-0.6 241.4-48.199 328.8-126.199-58 38.799-126.201 60.799-198.6 60.799zM831.4 35.199c-81.801-49.398-181.4-47.199-264 11.602 112.4 41 195.4 183.199 195.4 353.2 0 169.4-82.4 311.6-194.801 353.2 83.6 58.4 182.4 60.602 265.8 10 211.798-197.398 211-531.398-2.4-728z" />
<glyph unicode="&#xf26b;" glyph-name="internet-explorer" data-tags="internet-explorer" d="M966.098 576.588c50.393-90.895 66.516-195.162 53.703-282.324h-657.584c0-200.864 288.62-272.058 393.636-94.871h241.666c-65.129-183.457-239.378-292.044-433.626-292.044-70.273 0-140.545 0.287-203.39 31.146-174.795-88.988-360.502-113.139-360.502 84.012 0 91.613 46.492 214.192 87.984 290.044 70.271 127.445 162.824 249.75 271.374 346.336-87.412-37.721-182.25-132.592-243.954-202.316 51.754 225.574 258.932 387.276 474.196 372.914 260.064 119.588 419.346 68.289 419.346-77.154 0-54.865-21.137-126.592-42.848-175.742zM129.117 202.246c-146.002-304.8 23.051-344.488 200.534-246.608-93.127 54.865-165.111 144.307-200.534 246.608zM361.072 419.992h415.922c-4 110.303-101.127 189.742-207.962 189.742-107.408 0-203.958-79.439-207.958-189.742zM730.144 795.192c92.553-36.004 171.965-114.588 224.526-199.172 14.283 37.721 29.139 95.729 29.139 135.734 0 64.010-45.705 107.443-108.549 107.443-47.99 0-102.266-23.432-145.115-44.006z" />
<glyph unicode="&#xf282;" glyph-name="edge" data-tags="edge" d="M963.84 627.040c12.939-25.559 44.939-83.299 43.939-170.158-0.184-87.43-47.391-163.705-117.898-204.88-34.277-20.359-74.523-32.242-117.221-32.359-0.279 0-105.301-5.121-161.020 33.619-11.701 8.16-18.281 17.881-18.281 28 0 12.32 9.641 18 12.781 22 19.6 25.5 30.219 56.34 30.219 77.141 0 65.42-22 118.6-66 166.199-2.32 2.5-85.959 100.361-244.5 100.361-126.479 0-246.92-65.301-298.92-158.281 48.080 223.96 247.16 391.32 484.88 391.32 192.699 0 369.92-92.359 452.020-252.96zM425.54-55.34c2.561-1.141 58.021-41.18 134.262-54.42-15.791-1.52-31.031-2.717-47.217-2.717-198.682 0-370.236 117.072-449.384 285.938-51.5 110.939-48.16 211.92-46 236.54 8.34 68.561 54.16 119.4 93.682 149.6 59.26 45.381 137.639 71.381 215.058 71.381 14.1 0 87.84-1.801 155.281-37.18 65.119-34.201 94.639-75.16 113.119-107.021 3.699-6.465 6.998-13.291 9.779-20.279-8.439 9.301-80.119 88.4-198.119-2-53.344-38.668-93.602-93.674-113.939-157.84-28.281-80.801-25.68-177.16 40.199-272 24.494-36.383 55.99-66.791 93.279-90zM926.98 141.32c4.35-2.746 7.215-7.604 7.215-13.123 0-3.068-0.895-5.93-2.436-8.338-95.141-150.859-255.72-217.74-326-217.74-45.4 0-96.26 13.92-143.4 39.221-66 35.34-98.979 77.52-112 95.34-92.66 127.061-56.5 244.58-26.66 303.32 19.463 38.234 45.639 71.881 77.521 100-8.094-16.082-12.813-34.336-13.041-53.5 0-161.881 159.701-288 343.042-288 0.232 0 0.621 0.139 0.854 0.139 48.625 0 95.209 8.803 138.246 24.9 13.963 5.236 27.73 11.396 40.82 18.24 2.227 1.236 4.822 1.941 7.549 1.941 3.047 0 5.891-0.881 8.291-2.4z" />
<glyph unicode="&#xf2f6;" glyph-name="sign-in-alt" data-tags="sign-in-alt" d="M832 0h-168c-13.199 0-24 10.801-24 24v80c0 13.199 10.801 24 24 24h168c35.4 0 64 28.6 64 64v384c0 35.4-28.6 64-64 64h-168c-13.199 0-24 10.801-24 24v80c0 13.199 10.801 24 24 24h168c106 0 192-86 192-192v-384c0-106-86-192-192-192zM738 402c18.6-18.801 18.6-49.199 0-68l-336-336c-30-30-82-9-82 34v192h-272c-26.6 0-48 21.4-48 48v192c0 26.6 21.4 48 48 48h272v192c0 43 52 64 82 34z" />
<glyph unicode="&#xf309;" glyph-name="long-arrow-alt-down" data-tags="long-arrow-alt-down" horiz-adv-x="512" d="M336 204.118h92.115c42.766 0 64.182-51.703 33.943-81.941l-172.119-172.117c-18.744-18.746-49.135-18.746-67.881 0l-172.119 172.117c-30.238 30.24-8.822 81.941 33.943 81.941h92.117v603.882c0 13.254 10.746 24 24 24h112c13.254 0 24-10.746 24-24v-603.882z" />
<glyph unicode="&#xf35d;" glyph-name="external-link-alt" data-tags="external-link-alt" d="M864 256c17.662 0 32-14.338 32-32v-256c0-52.984-43.016-96-96-96h-704c-52.984 0-96 43.016-96 96v704c0 52.984 43.016 96 96 96h320c17.662 0 32-14.338 32-32v-64c0-17.662-14.338-32-32-32h-288v-640h640v224c0 17.662 14.338 32 32 32h64zM976 896c26.492 0 48-21.508 48-48v-256c0-43-52-64-82-34l-71.439 71.359-487.22-487.36c-8.693-8.723-20.73-14.125-34.006-14.125s-25.301 5.402-33.994 14.125l-45.34 45.26c-8.723 8.693-14.125 20.73-14.125 34.006s5.402 25.301 14.125 33.994l487.46 487.28-71.461 71.461c-30.1 30.18-8.74 82 34 82h256z" />
<glyph unicode="&#xf3be;" glyph-name="level-down-alt" data-tags="level-down-alt" horiz-adv-x="640" d="M627.106 111.338l-207.932-224.006c-18.971-20.428-51.352-20.459-70.348 0l-207.95 224.006c-28.412 30.6-6.754 80.662 35.174 80.662h127.949v544h-167.951c-6.623 0-12.627 2.686-16.971 7.029l-112 112c-15.121 15.119-4.412 40.971 16.971 40.971h391.952c26.51 0 48-21.49 48-48v-656h127.932c41.756 0 63.703-49.938 35.174-80.662z" />
<glyph unicode="&#xf78c;" glyph-name="compress-arrows-alt" data-tags="compress-arrows-alt" d="M400 320c26.6 0 48-21.4 48-48v-224c0-42.801-51.6-64.199-81.801-34l-62.199 66-198.6-198.6c-12.4-12.4-32.801-12.4-45.201 0l-50.799 50.799c-12.4 12.4-12.4 32.801 0 45.201l198.4 198.6-65.801 62c-30.199 30.4-8.801 82 34 82h224zM624 448c-26.6 0-48 21.4-48 48v224c0 42.801 51.6 64.199 81.801 34l62.199-66 198.6 198.6c12.4 12.4 32.801 12.4 45.201 0l50.799-50.799c12.4-12.4 12.4-32.801 0-45.201l-198.6-198.6 66-62c30.199-30.199 8.801-82-34-82h-224zM816 176l198.6-198.801c12.4-12.398 12.4-32.799 0-45.199l-50.799-50.801c-12.4-12.398-32.801-12.398-45.201 0l-198.6 198.602-62-65.801c-30.199-30.199-82-8.801-82 34v224c0 26.6 21.4 48 48 48h224c42.801 0 64.199-51.6 34-81.801zM366 753.8c30.199 30.199 82 8.799 82-33.801v-224c0-26.6-21.4-48-48-48h-224c-42.801 0-64.199 51.6-34 81.801l66 62.199-198.6 198.6c-12.4 12.4-12.4 32.801 0 45.201l50.799 50.799c12.4 12.4 32.801 12.4 45.201 0l198.6-198.6z" />
</font>
</defs>
</svg>
