<svg id="Layer_1" data-name="Layer 1" xmlns="http://www.w3.org/2000/svg" width="64" height="64" viewBox="0 0 64 64">
  <defs>
    <style>
      .cls-1 {
        fill: #333;
      }

      .cls-2 {
        fill: none;
      }
    </style>
  </defs>
  <g>
    <g>
      <g>
        <g>
          <path class="cls-1" d="M59.21,39.07a2.91,2.91,0,0,0-4.16.11C50.93,43.3,42,41.41,34.87,35l5-4.79A1.6,1.6,0,0,0,40,27.88l-5.21-5.21a1.59,1.59,0,0,0-2.31.09c-.37.37-3,3.1-6.15,6.43l-.81-.8.76-.76a1.05,1.05,0,0,0-1.49-1.49l-3,3a1.05,1.05,0,0,0,1.49,1.49l.75-.75.86.86c-3,3.61-14.75,14.32-11,18,3.49,3.45,12.44-6,16.76-9.73,9.51,8.68,22.14,10.62,28.51,4.25A2.91,2.91,0,0,0,59.21,39.07ZM15.39,47.24c-.2-.84,1.52-4.23,3.14-6.15l3,3C18.12,47,15.5,47.42,15.39,47.24Zm42.27-5.45c-5.72,5.72-17.5,3.5-26.27-4.95a1.06,1.06,0,0,0-1.47,0c-2.7,2.55-4.78,4.41-6.69,6l-3.35-3.34C24.27,34.3,32,26.3,33.68,24.55L38.12,29,32.6,34.28a1.05,1.05,0,0,0,0,1.53c8.26,7.89,18.78,10,23.94,4.86A.8.8,0,1,1,57.66,41.79Z"/>
          <path class="cls-1" d="M55.75,6.8a4.64,4.64,0,0,1,0,6.56L42.56,26.55a.62.62,0,0,1-.87,0L35.93,20.8a.54.54,0,0,1,0-.75L49.18,6.8A4.65,4.65,0,0,1,55.75,6.8Z"/>
        </g>
        <g>
          <path class="cls-1" d="M12.13,50.57a1.15,1.15,0,0,0-1.63,0L4.63,56.45a1.14,1.14,0,0,0,0,1.63,1.15,1.15,0,0,0,1.63,0l5.87-5.87A1.15,1.15,0,0,0,12.13,50.57Z"/>
          <path class="cls-1" d="M10.51,47.36a1.16,1.16,0,0,0-.73-1.46l-4.35-.68a1.15,1.15,0,0,0-.73,2.19l4.35.68A1.14,1.14,0,0,0,10.51,47.36Z"/>
          <path class="cls-1" d="M17.76,58.54a1.16,1.16,0,0,0,.93-1.35l-1.52-4.13a1.15,1.15,0,0,0-2.27.42l1.51,4.13A1.16,1.16,0,0,0,17.76,58.54Z"/>
        </g>
      </g>
      <rect class="cls-2" x="3.92" y="3.92" width="56.17" height="56.17"/>
    </g>
    <rect class="cls-2" width="64" height="64"/>
  </g>
</svg>
