<svg id="Layer_1" data-name="Layer 1" xmlns="http://www.w3.org/2000/svg" width="64" height="64" viewBox="0 0 64 64">
  <defs>
    <style>
      .cls-1 {
        fill: #333;
      }

      .cls-2 {
        fill: none;
      }
    </style>
  </defs>
  <g>
    <g>
      <path class="cls-1" d="M52.87,43V19.7A27.33,27.33,0,0,0,54,11.46a1.41,1.41,0,0,0-2.82,0c0,26.53-31.6,12.68-39.39,31.2V21.19a1.16,1.16,0,1,0-1.18-.27,1.14,1.14,0,0,0,.47.29V44.63a28.21,28.21,0,0,0-1,7.94,1.41,1.41,0,0,0,2.82,0c0-26.54,31.3-13,39.29-31V43a1.15,1.15,0,0,0-.47,1.91,1.16,1.16,0,0,0,1.64-1.64A1.14,1.14,0,0,0,52.87,43Z"/>
      <rect class="cls-2" x="10" y="10" width="44" height="44"/>
    </g>
    <rect class="cls-2" width="64" height="64"/>
  </g>
</svg>
