<svg id="Layer_1" data-name="Layer 1" xmlns="http://www.w3.org/2000/svg" width="64" height="64" viewBox="0 0 64 64">
  <defs>
    <style>
      .cls-1 {
        fill: none;
      }

      .cls-2 {
        fill: #333;
      }
    </style>
  </defs>
  <g>
    <rect class="cls-1" width="64" height="64" transform="translate(64 64) rotate(-180)"/>
    <rect class="cls-1" x="7.12" y="7.04" width="49.83" height="49.83"/>
    <path class="cls-2" d="M23.52,52.91a15.76,15.76,0,0,1-9.88-3.52,3.22,3.22,0,0,0,3.63-3.8C16.75,41.06,21.05,37,25,37A8.29,8.29,0,0,1,33,43.58C33.69,48.07,30.74,53.14,23.52,52.91ZM25,34.45c-5.53-.1-10.92,5.45-10.24,11.32.13,1.11-.42,1.29-1.23,1a17.15,17.15,0,0,1-6.5-3.94C8.75,51.33,17.19,56,25.38,55.31c4.19-.34,7.36-2.17,9.17-6C38.21,41.58,31.88,34.57,25,34.45Z"/>
    <path class="cls-2" d="M51.67,53.33a12.39,12.39,0,0,0,.45-7.56c-.33-1.25-.67-1.37-1.76-.66a10.39,10.39,0,0,1-15.57-5.17C32,32.42,39.22,24.4,47,26.36A10.87,10.87,0,0,1,53.48,31C58.25,38,58.34,47.64,51.67,53.33Z"/>
    <g>
      <path class="cls-1" d="M23.17,16V30.27a8.37,8.37,0,0,0,1.3.74V14.7A16.5,16.5,0,0,0,23.17,16Z"/>
      <path class="cls-1" d="M27,12.82v18.9a5.74,5.74,0,0,0,1.31,0V12.12A13.75,13.75,0,0,0,27,12.82Z"/>
      <path class="cls-1" d="M20.52,20.33a7.62,7.62,0,0,0,.15,7.25V20Z"/>
      <path class="cls-1" d="M31.05,16.69a2.29,2.29,0,0,1-.27-.14V31.13a7.59,7.59,0,0,0,1.3-.78V17.27A7,7,0,0,0,31.05,16.69Z"/>
      <path class="cls-1" d="M34.58,27.65a8,8,0,0,0,0-7.56Z"/>
      <path class="cls-2" d="M32.08,14.41c-1.23-.53-.79-1.28,0-2a12.46,12.46,0,0,1,6.53-3.17c-5.29-2-11.28-.45-15.44,3.22-5.74,5-8.55,13.58-2.5,19a10.47,10.47,0,0,0,14.67-.74C40,25.65,38.17,17.05,32.08,14.41Zm-11.6,6,.19-.4v7.55A7.56,7.56,0,0,1,20.48,20.43Zm2.69,9.84V16a16.5,16.5,0,0,1,1.3-1.34V31A8.37,8.37,0,0,1,23.17,30.27Zm4.64,1.51a7.91,7.91,0,0,1-.84-.06V12.82a13.75,13.75,0,0,1,1.31-.7V31.75C28.12,31.76,28,31.78,27.81,31.78Zm3-.65V16.55a9.15,9.15,0,0,1,1.3.72V30.35A7.59,7.59,0,0,1,30.78,31.13Zm4.61-8.73a7.5,7.5,0,0,1-.81,5.25V20.09A8.12,8.12,0,0,1,35.39,22.4Z"/>
    </g>
  </g>
</svg>
