<?xml version="1.0" encoding="utf-8"?>
<!-- Generator: Adobe Illustrator 25.0.1, SVG Export Plug-In . SVG Version: 6.00 Build 0)  -->
<svg version="1.1" id="Layer_1" xmlns="http://www.w3.org/2000/svg" xmlns:xlink="http://www.w3.org/1999/xlink" x="0px" y="0px"
	 viewBox="0 0 64 64" style="enable-background:new 0 0 64 64;" xml:space="preserve">
<style type="text/css">
	.st0{fill:#333333;}
	.st1{fill:none;}
</style>
<g>
	<g>
		<path class="st0" d="M56,33.1c0,0-10.8-15.5-14.6-21c-0.5,3-3.3,7.1-6.2,10.5c-0.1-1-0.3-2.2-0.4-2.6c4.2-5.1,6.8-10.8,2.2-10
			c-1.5,0.5-2.9,1.2-4.2,2c-1.2-2.9-2.9-5.3-5.4-5.2c-0.1,0-0.2,0-0.3,0c-4.6,0.4-6.5,8.6-6.1,15.7c-1.2,1.5-2.4,3-3.4,4.6
			c-5.4,1.5-7.9,3-7.5,10.4c0.3,6.4,1.7,11.9,0.1,12.8c-4.7,2.7-3.7,6-0.7,6.5c4.9,0.8,10-0.7,12.1-3.8s-1.3-11.8-3.9-17l20.8,14.4
			c2,2,5.5,1.5,12.3-5.2S57.9,35.1,56,33.1z M38,11.5c0.7,0.6-0.8,3.2-3.5,6.6c-0.3-1.6-0.6-3.1-1.1-4.6C35.8,11.8,37.5,11,38,11.5z
			 M27.3,8.8c1.5-0.1,2.8,1.4,3.9,4.3c-3,2.1-5.7,4.6-8.2,7.2C23.1,14,24.8,9.1,27.3,8.8z M25.7,20.2c1.9-1.9,3.9-3.7,6-5.4
			c0.5,1.7,0.9,3.5,1.1,5.3c-1.3,1.5-2.9,3.1-4.4,4.6c-3.2,0.8-6.1,1.4-8.5,2C21.7,24.4,23.7,22.2,25.7,20.2z M17.6,36
			c-0.9-1.6,0.4-1.6,3.5-3.5c3.8-2.4,7.3-5.3,10.4-8.6l0,0c0.6-0.6,1.1-1.2,1.7-1.8c0.1,0.8,0.2,1.6,0.4,2.5
			C29.2,29.4,22.3,34.9,17.6,36z M35.3,31.9c-1.1,0-2-0.9-2-2c0-0.6,0.3-1.2,0.7-1.5c0.2,1.2,0,2.4,1.3,2.4c1.3-0.3,0.8-1.4,0.7-2.7
			c1,0.5,1.4,1.7,0.9,2.7C36.6,31.4,36,31.8,35.3,31.9L35.3,31.9z"/>
		<rect x="6.8" y="6.8" class="st1" width="50.3" height="50.3"/>
	</g>
	<rect y="0" class="st1" width="64" height="64"/>
</g>
</svg>
