<svg id="Layer_1" data-name="Layer 1" xmlns="http://www.w3.org/2000/svg" width="64" height="64" viewBox="0 0 64 64">
  <defs>
    <style>
      .cls-1 {
        fill: none;
      }

      .cls-2 {
        fill: #333;
      }
    </style>
  </defs>
  <g>
    <rect class="cls-1" width="64" height="64" transform="translate(64 64) rotate(-180)"/>
    <g>
      <g>
        <g>
          <path class="cls-2" d="M13.58,48.14c-.66,0-5.67-2.91-7.37-8.41-1-3.27-.12-7.14,2.11-10.36a11.27,11.27,0,0,0,2-9.19,1,1,0,0,1,1.73-.71c4.77,4.8,5.93,11,6,15.23a1,1,0,0,1-1.92,0,20.78,20.78,0,0,0-3.67-11.83c-.13,4.47-1.7,6.1-3.11,8.4-4.35,7.13,1,13,4.68,15A1,1,0,0,1,13.58,48.14Z"/>
          <path class="cls-2" d="M28.6,36.59a1,1,0,0,1-1-1.13c.67-3.91-1.16-8.27-5.27-12.63-2.54-2.68-3.21-6.85-3.3-10.08a33.08,33.08,0,0,0-2.87,7.1,1,1,0,0,1-1.85-.5c.22-.82,2.25-8,5.17-10A1,1,0,0,1,21,10.4c-.27,4.93.72,9,2.69,11.06,4.6,4.86,6.6,9.8,5.82,14.33A1,1,0,0,1,28.6,36.59Z"/>
        </g>
        <path class="cls-2" d="M57,14a4.23,4.23,0,0,0-6,0L25,42l-4.92,1.85h0a5.64,5.64,0,1,0,7,7h0l1.86-5L57,20A4.21,4.21,0,0,0,57,14ZM20.81,46a2.4,2.4,0,0,0-1,.45,3.18,3.18,0,0,0-.41.41,2.77,2.77,0,0,0-.22.37.48.48,0,0,1-.83-.49c.25-.7,2.28-2.39,2.78-1.33A.48.48,0,0,1,20.81,46ZM55.62,18.63,30.5,41.92A1.16,1.16,0,0,0,29,40.49L52.35,15.37A2.31,2.31,0,0,1,55.62,18.63Z"/>
      </g>
      <rect class="cls-1" x="5.81" y="5.81" width="52.38" height="52.38"/>
    </g>
  </g>
</svg>
