<svg id="Layer_1" data-name="Layer 1" xmlns="http://www.w3.org/2000/svg" width="64" height="64" viewBox="0 0 64 64">
  <defs>
    <style>
      .cls-1 {
        fill: #333;
      }

      .cls-2 {
        fill: none;
      }
    </style>
  </defs>
  <g>
    <g>
      <path class="cls-1" d="M32,50.64h0a31.11,31.11,0,0,1-5.48-.48,1.11,1.11,0,0,1-.89-1.28A1.09,1.09,0,0,1,26.88,48a28.79,28.79,0,0,0,5.1.45,1.1,1.1,0,0,1,1.1,1.09A1.09,1.09,0,0,1,32,50.64Zm5.3-.47A1.1,1.1,0,0,1,37.11,48,26.49,26.49,0,0,0,42,46.61a1.1,1.1,0,0,1,.8,2,29.35,29.35,0,0,1-5.33,1.49ZM21.56,48.75a1.09,1.09,0,0,1-.39-.08,24.86,24.86,0,0,1-5-2.55,1.1,1.1,0,0,1,1.22-1.82A22.94,22.94,0,0,0,22,46.63a1.1,1.1,0,0,1-.4,2.12Zm25.6-2.46a1.13,1.13,0,0,1-.92-.49,1.09,1.09,0,0,1,.31-1.52A19.29,19.29,0,0,0,50.34,41,1.1,1.1,0,1,1,52,42.42a21.54,21.54,0,0,1-4.22,3.68A1.07,1.07,0,0,1,47.16,46.29ZM12.81,42.83a1.09,1.09,0,0,1-.82-.38,17.23,17.23,0,0,1-3-4.8,1.1,1.1,0,0,1,2-.83A14.85,14.85,0,0,0,13.64,41a1.09,1.09,0,0,1-.1,1.54A1.08,1.08,0,0,1,12.81,42.83ZM54,38.29a1,1,0,0,1-.41-.08,1.1,1.1,0,0,1-.6-1.43A12.57,12.57,0,0,0,53.9,32,1.13,1.13,0,0,1,55,30.86a1.06,1.06,0,0,1,1.1,1.06H55l1.1.06A15,15,0,0,1,55,37.61,1.1,1.1,0,0,1,54,38.29ZM9,33.12A1.08,1.08,0,0,1,7.86,32v0a14.83,14.83,0,0,1,1.08-5.56,1.1,1.1,0,0,1,2,.81A12.63,12.63,0,0,0,10.05,32,1.11,1.11,0,0,1,9,33.12Zm45-5.3a1.08,1.08,0,0,1-1-.68A15.21,15.21,0,0,0,50.29,23a1.09,1.09,0,0,1,1.64-1.45,17,17,0,0,1,3,4.8,1.08,1.08,0,0,1-.59,1.43A1,1,0,0,1,53.94,27.82ZM12.76,23.43a1.1,1.1,0,0,1-.83-1.81,21.63,21.63,0,0,1,4.22-3.7,1.11,1.11,0,0,1,1.52.3,1.09,1.09,0,0,1-.3,1.52,19.31,19.31,0,0,0-3.78,3.31A1.11,1.11,0,0,1,12.76,23.43Zm34.32-3.57a1.13,1.13,0,0,1-.6-.18A24.05,24.05,0,0,0,42,17.36a1.1,1.1,0,0,1,.78-2,25.93,25.93,0,0,1,4.95,2.54,1.1,1.1,0,0,1-.61,2Zm-25.6-2.38a1.1,1.1,0,0,1-.4-2.12,28.59,28.59,0,0,1,5.33-1.5A1.1,1.1,0,1,1,26.8,16a26.7,26.7,0,0,0-4.92,1.38A1.1,1.1,0,0,1,21.48,17.48ZM37.22,16A.62.62,0,0,1,37,16,29.26,29.26,0,0,0,32,15.55a1.12,1.12,0,0,1-1.13-1.09,1.07,1.07,0,0,1,1.06-1.1h0a31.68,31.68,0,0,1,5.46.47A1.1,1.1,0,0,1,37.22,16Z"/>
      <rect class="cls-2" x="7.91" y="7.88" width="48.24" height="48.24"/>
    </g>
    <rect class="cls-2" width="64" height="64"/>
  </g>
</svg>
