<svg id="Layer_1" data-name="Layer 1" xmlns="http://www.w3.org/2000/svg" width="64" height="64" viewBox="0 0 64 64">
  <defs>
    <style>
      .cls-1 {
        fill: #333;
      }

      .cls-2 {
        fill: none;
      }
    </style>
  </defs>
  <g>
    <g>
      <path class="cls-1" d="M55.57,17C61.05,11.19,52.81,3,47,8.43L36.08,19.37l-1-1A2.91,2.91,0,0,0,31,22.47l1,1L11.43,44A6,6,0,0,0,9.7,49L7.62,51.12C6,52.75,6.54,55,8.23,56.38a3.3,3.3,0,0,0,4.65,0L15,54.3a6,6,0,0,0,5-1.73L40.53,32l1,1a2.91,2.91,0,0,0,4.11-4.11l-1-1Zm-37,34.08a4,4,0,0,1-2.8,1.15,2.54,2.54,0,0,0-2.25.57l-2.08,2.08a1.18,1.18,0,0,1-1.68,0c-.35-.38-1-.85-1-1.44a1.15,1.15,0,0,1,.35-.84l2.08-2.08a2.11,2.11,0,0,0,.6-1.75,3.91,3.91,0,0,1,1.12-3.3L33.44,25l5.61,5.61Z"/>
      <rect class="cls-2" x="6.63" y="6.63" width="50.73" height="50.73"/>
    </g>
    <rect class="cls-2" width="64" height="64"/>
  </g>
</svg>
