<svg id="Layer_1" data-name="Layer 1" xmlns="http://www.w3.org/2000/svg" width="64" height="64" viewBox="0 0 64 64">
  <defs>
    <style>
      .cls-1 {
        fill: #333;
      }

      .cls-2 {
        fill: none;
      }
    </style>
  </defs>
  <g>
    <g>
      <path class="cls-1" d="M54,23.27a.56.56,0,0,0-.14-.3L36.57,5.72a.53.53,0,0,0-.74,0L16.31,25.15a.46.46,0,0,0-.15.38l0,2.4-.09.09h0l-5.81,5.82a1.49,1.49,0,0,0-.2.29,1,1,0,0,0-.11.45v8a1.06,1.06,0,0,0,.31.75S25.14,58.14,25.18,58.15a1,1,0,0,0,1.46,0l6-6c.45.36.86,1.25,1.52.53l19.5-19.4a1.25,1.25,0,0,0,.37-.58S54,23.32,54,23.27ZM24.84,54.83,12.12,42.12v-5L24.84,49.85Zm1.05-6.91L12.56,34.58,19,28.16l13.5,13.16ZM27,49.85,34,42.79l.14.14s-.21,4.87-.21,4.91l-7,7Z"/>
      <rect class="cls-2" x="5.57" y="5.57" width="52.86" height="52.86"/>
    </g>
    <rect class="cls-2" width="64" height="64"/>
  </g>
</svg>
