<svg id="Layer_1" data-name="Layer 1" xmlns="http://www.w3.org/2000/svg" width="64" height="64" viewBox="0 0 64 64">
  <defs>
    <style>
      .cls-1 {
        fill: #333;
      }

      .cls-2 {
        fill: none;
      }
    </style>
  </defs>
  <g>
    <g>
      <path class="cls-1" d="M54,23.27a.56.56,0,0,0-.14-.3L36.59,5.72a.53.53,0,0,0-.74,0L16.34,25.15a.44.44,0,0,0-.16.37l0,2.4L13.09,31A10.5,10.5,0,0,0,10,38.13s-.1,7.22.05,9.62c.13,3.08,2.22,5.58,4.41,7.59a10.56,10.56,0,0,0,14.93,0l3.2-3.2c.45.36.87,1.27,1.53.54l19.5-19.4a1.23,1.23,0,0,0,.37-.57S54,23.31,54,23.27Zm-39.4,29.2a8.7,8.7,0,0,1-2.49-5.61V44.8a23.9,23.9,0,0,0,2.38,2.56,10.51,10.51,0,0,0,6.73,3l.13,5.88C18.11,56.3,14.58,52.47,14.58,52.47ZM16,45.86l-1.39-1.38a8.47,8.47,0,0,1,0-11.95L19,28.13,32.34,41.44l-4.42,4.42A8.45,8.45,0,0,1,16,45.86Zm12,8a8.4,8.4,0,0,1-4.47,2.33l-.13-5.84a10.47,10.47,0,0,0,6.09-3l4.76-4.43L34,47.8Z"/>
      <rect class="cls-2" x="5.57" y="5.57" width="52.86" height="52.86"/>
    </g>
    <rect class="cls-2" width="64" height="64"/>
  </g>
</svg>
