<svg id="Layer_1" data-name="Layer 1" xmlns="http://www.w3.org/2000/svg" width="64" height="64" viewBox="0 0 64 64">
  <defs>
    <style>
      .cls-1 {
        fill: #333;
      }

      .cls-2 {
        fill: none;
      }
    </style>
  </defs>
  <g>
    <g>
      <path class="cls-1" d="M21.42,54a1.39,1.39,0,0,1-.91-.35c-14.73-13-9.69-28.14,10.13-26.42,11,.94,17.52-.59,18.52-4.3s-3.63-9-6.43-10.34a1.35,1.35,0,0,1,1.14-2.45c3.61,1.68,9.35,8.09,7.9,13.49s-8.6,7.39-21.36,6.3C13.14,28.46,9.57,40.28,22.33,51.64A1.36,1.36,0,0,1,21.42,54Z"/>
      <rect class="cls-2" x="10" y="10" width="44" height="44"/>
    </g>
    <rect class="cls-2" width="64" height="64"/>
  </g>
</svg>
