<svg id="Layer_1" data-name="Layer 1" xmlns="http://www.w3.org/2000/svg" width="64" height="64" viewBox="0 0 64 64">
  <defs>
    <style>
      .cls-1 {
        fill: none;
      }

      .cls-2 {
        fill: #333;
      }
    </style>
  </defs>
  <g>
    <g>
      <rect class="cls-1" x="8.72" y="8.72" width="46.56" height="46.56"/>
      <rect class="cls-1" x="8.72" y="8.72" width="46.56" height="46.56"/>
      <path class="cls-2" d="M46.42,17a3.93,3.93,0,0,0-2,.53v-1.4c0-3.75-3.45-5.29-6.07-3.73a4,4,0,0,0-7.88.11,4.32,4.32,0,0,0-2.3-.71,4.1,4.1,0,0,0-1.76.45c-.81.42-6.4,5.25-6.61,6.12-.76,2.42,2.59,5.27,4.48,5.45h0s.34,6.2-.14,7.67c-.19.58-.8.77-1-.05a6.6,6.6,0,0,1-.09-1.64c0-.55.09-1.08.12-1.43.45-5.19-3.71-6.34-5.27-6.78a1,1,0,0,0-1.19.67s-1.19,4.24-2.86,9.83c-.45,1.49-.92,2,7.59,13a4.11,4.11,0,0,1,.94,2.31v7a1,1,0,0,0,1,.92l18.2.05a1,1,0,0,0,1-1l0-7.18a5.3,5.3,0,0,1,1.09-2.59c2.84-4.7,5-6.59,5.62-8.05s.9-5.93,1-9.92V21.11A3.87,3.87,0,0,0,46.42,17ZM22,20.12a1.6,1.6,0,0,1-.34-1.27,4.86,4.86,0,0,1,.86-1c.48-.48,1.1-1,1.74-1.6h0v5.61a5.91,5.91,0,0,1-1.72-1.09A4.14,4.14,0,0,1,22,20.12Zm26.32,6.44c0,3.33-.35,7.68-.89,9.17-.53,1.25-2.61,3.17-5.35,7.6a7.45,7.45,0,0,0-1.52,3.8l0,6.21-16.3,0,0-6a5.47,5.47,0,0,0-.93-2.8c-4.12-5.94-7.65-9.88-7.69-11.83,1.21-4,2.16-7.34,2.6-8.9,5.26,1.74,1.35,6.26,3.56,9.44a2.34,2.34,0,0,0,3.39.11c1-.79.94-4.64.93-6V16.12c0-3.37,4.13-3.08,4.22,0V26.19a1,1,0,0,0,1,1h0a1,1,0,0,0,1-1V12.94c0-3.18,4-3,4.11,0V26.19a1,1,0,0,0,1,1h0a1,1,0,0,0,1-1V16.12c0-3.22,4.08-3.22,4.07,0,0,.51,0,6,0,10.07a1,1,0,0,0,1,1h0a1,1,0,0,0,1-1c0-1.84,0-4,0-5.08a2,2,0,1,1,3.91,0Z"/>
    </g>
    <rect class="cls-1" width="64" height="64"/>
  </g>
</svg>
