<svg id="Layer_1" data-name="Layer 1" xmlns="http://www.w3.org/2000/svg" width="64" height="64" viewBox="0 0 64 64">
  <defs>
    <style>
      .cls-1 {
        fill: none;
      }

      .cls-2 {
        fill: #333;
      }
    </style>
  </defs>
  <g>
    <g>
      <rect class="cls-1" x="10.5" y="10.5" width="43" height="43"/>
      <path class="cls-2" d="M45.1,16a3.94,3.94,0,0,0-2.05.57,3.92,3.92,0,0,0-6.12-3,4,4,0,0,0-7.74.08c-2.63-1.74-6.23-.42-6.29,3.6v1.27a3.68,3.68,0,0,0-3.16,1.8c-.85,1.44-4.06,10-4.47,11.29a3.86,3.86,0,0,0,.67,3.9c.81,1.1,4.79,6.23,6.25,8.11a3.41,3.41,0,0,1,.71,1.93c0,1.71,0,6.9,0,7a1,1,0,0,0,1,1H42.11a1,1,0,0,0,1-1V45.27A4.85,4.85,0,0,1,44,42.85c1-1.79,1.83-3.07,2.77-4.82.84-1.56,1.9-3,2-5.05.22-2.52.22-6,.22-6.17V20.15A3.88,3.88,0,0,0,45.1,16ZM47,26.81s0,3.57-.21,6a5.66,5.66,0,0,1-.51,2.08l-1.22,2.2c-.86,1.56-.86,1.56-1.8,3.15l-.95,1.62a6.47,6.47,0,0,0-1.21,3.42v6.27H24.85c0-1.6,0-4.74,0-6a5.23,5.23,0,0,0-1.12-3.07c-1.46-1.87-5.41-7-6.22-8.08a1.93,1.93,0,0,1-.38-2.15c.43-1.38,3.57-9.66,4.29-10.89a1.8,1.8,0,0,1,1.24-.84.71.71,0,0,1,.25,0v9.91a1,1,0,1,0,1.94,0V17.27c0-1.76,1-2.4,2-2.41h0a2.25,2.25,0,0,1,2.22,2.41v7.22a1,1,0,0,0,1.95,0V14.74a2,2,0,0,1,2-2.3,2.1,2.1,0,0,1,2.12,2.3v9.74a1,1,0,0,0,2,0V17.27c0-1.67,1-2.41,2-2.41h0c1,0,2,.74,2,2.41,0,1.1,0,6.89,0,7.18v0a1,1,0,0,0,2,0s0-2.3,0-4.33h0a2,2,0,0,1,2-2.2A2,2,0,0,1,47,20.15Z"/>
    </g>
    <rect class="cls-1" width="64" height="64"/>
  </g>
</svg>
