<svg id="Layer_1" data-name="Layer 1" xmlns="http://www.w3.org/2000/svg" width="64" height="64" viewBox="0 0 64 64">
  <defs>
    <style>
      .cls-1 {
        fill: #333;
      }

      .cls-2 {
        fill: none;
      }
    </style>
  </defs>
  <g>
    <g>
      <path class="cls-1" d="M44.46,14.91a4,4,0,0,0-2,.53V14c0-3.75-3.46-5.3-6.07-3.73a4,4,0,0,0-7.89.11,4.23,4.23,0,0,0-2.3-.71A4,4,0,0,0,22.32,14V25.69c-1.52-1.53-6.43-2-6.66,1V38.2a8,8,0,0,0,1,3.76c1.18,1.5,3.76,4,5,5.57a4.31,4.31,0,0,1,.72,1.9v7a1,1,0,0,0,1,1H41.48a1,1,0,0,0,1-1V49.16a5.66,5.66,0,0,1,1.11-2.7c2-3.47,4.91-6.64,4.77-10.86V19A3.87,3.87,0,0,0,44.46,14.91ZM46.39,35.6c.09,3.85-2.75,6.67-4.5,9.87a7.09,7.09,0,0,0-1.38,3.7v6.25H24.26v-6c-.23-3.48-4.2-6.07-6.06-8.59a6.71,6.71,0,0,1-.6-2.64V26.71c.2-.31,1.85-.45,2.94.08,2.43,1.56,1.62,6.66,1.78,9.38a1,1,0,0,0,1.94,0V14c0-3.38,4.13-3.08,4.22,0v14.4a1,1,0,0,0,1.94,0V10.85c0-3.17,4-3,4.11,0V28.43a1,1,0,0,0,1.94,0V14c0-3.22,4.08-3.22,4.07,0,0,.86,0,14.39,0,14.39a1,1,0,0,0,1.94,0h0c0-1.66,0-7,0-9.38a2,2,0,1,1,3.91,0Z"/>
      <rect class="cls-2" x="6.63" y="6.63" width="50.73" height="50.73"/>
    </g>
    <rect class="cls-2" width="64" height="64"/>
  </g>
</svg>
