<svg id="Layer_1" data-name="Layer 1" xmlns="http://www.w3.org/2000/svg" width="64" height="64" viewBox="0 0 64 64">
  <defs>
    <style>
      .cls-1 {
        fill: #333;
      }

      .cls-2 {
        fill: none;
      }
    </style>
  </defs>
  <g>
    <g>
      <g>
        <path class="cls-1" d="M33.44,41.77a1.19,1.19,0,0,1-.33-.65l-.94-5.29a.86.86,0,0,1,1.69-.27l.69,3.68L38,32.5a1.17,1.17,0,0,1,1.24-.63l7.48,1.18L41.35,27.7a1.2,1.2,0,0,1-.22-1.38l3.44-6.74L37.83,23a1.18,1.18,0,0,1-1.38-.21L31.1,17.44l1.18,7.48a1.17,1.17,0,0,1-.63,1.24L24.9,29.6l3.71.71A.86.86,0,0,1,28.34,32L23,31a1.19,1.19,0,0,1-.35-2.23l7.85-4L29.15,16.1a1.18,1.18,0,0,1,2-1l6.23,6.23,7.85-4a1.19,1.19,0,0,1,1.6,1.6l-4,7.85L49.07,33a1.19,1.19,0,0,1-1,2l-8.71-1.38-4,7.85A1.19,1.19,0,0,1,33.44,41.77Zm.37-1.08h0ZM30.87,24.63h0Zm8.65,8.64h0ZM37.05,21.49Zm9-2.65Z"/>
        <g>
          <path class="cls-1" d="M38.91,6.77a.86.86,0,0,0-.12,1.72A.86.86,0,0,0,38.91,6.77Z"/>
          <path class="cls-1" d="M38.66,10.21a.87.87,0,0,0-.92.8l-.37,5.17a.87.87,0,0,0,.8.92.86.86,0,0,0,.92-.8l.37-5.17A.86.86,0,0,0,38.66,10.21Z"/>
        </g>
        <path class="cls-1" d="M52.4,11.83a.86.86,0,0,0-1.22,0l-3.66,3.66a.86.86,0,1,0,1.22,1.22l3.66-3.66A.86.86,0,0,0,52.4,11.83Z"/>
        <g>
          <path class="cls-1" d="M17.47,18.36a.86.86,0,0,0,1.55.76A.86.86,0,0,0,17.47,18.36Z"/>
          <path class="cls-1" d="M20.57,19.87A.87.87,0,0,0,21,21l4.66,2.27a.85.85,0,0,0,1.15-.39.86.86,0,0,0-.39-1.16l-4.66-2.27A.86.86,0,0,0,20.57,19.87Z"/>
        </g>
        <g>
          <path class="cls-1" d="M56.05,24.06a.86.86,0,0,0,.18,1.72A.86.86,0,0,0,56.05,24.06Z"/>
          <path class="cls-1" d="M52.62,24.41l-5.16.53a.86.86,0,0,0,.18,1.72l5.15-.53A.86.86,0,0,0,52.62,24.41Z"/>
        </g>
        <g>
          <path class="cls-1" d="M46,45.53a.86.86,0,0,0-1.57.71A.86.86,0,0,0,46,45.53Z"/>
          <path class="cls-1" d="M44.58,42.38l-2.12-4.73a.86.86,0,0,0-1.57.7L43,43.09A.87.87,0,0,0,44.58,42.38Z"/>
        </g>
        <path class="cls-1" d="M8.1,56.13a3.77,3.77,0,0,1,0-5.33L35.2,28a.73.73,0,0,1,1,1L13.44,56.13A3.78,3.78,0,0,1,8.1,56.13Z"/>
      </g>
      <rect class="cls-2" x="6.77" y="6.77" width="50.47" height="50.47"/>
    </g>
    <rect class="cls-2" width="64" height="64"/>
  </g>
</svg>
