<svg id="Layer_1" data-name="Layer 1" xmlns="http://www.w3.org/2000/svg" width="64" height="64" viewBox="0 0 64 64">
  <defs>
    <style>
      .cls-1 {
        fill: #333;
      }

      .cls-2 {
        fill: none;
      }
    </style>
  </defs>
  <g>
    <g>
      <g>
        <path class="cls-1" d="M55.12,10.29a1,1,0,0,0-1.4-1.4A1,1,0,0,0,55.12,10.29Z"/>
        <path class="cls-1" d="M53.72,36.91a1,1,0,0,0,1.4,1.4A1,1,0,0,0,53.72,36.91Z"/>
        <path class="cls-1" d="M27.1,10.29a1,1,0,0,0-1.4-1.4A1,1,0,0,0,27.1,10.29Z"/>
        <path class="cls-1" d="M24.56,24.59H30.5a1,1,0,1,0,0-2H24.56A1,1,0,0,0,24.56,24.59Z"/>
        <path class="cls-1" d="M56.26,22.61H50.31a1,1,0,0,0,0,2h5.95A1,1,0,0,0,56.26,22.61Z"/>
        <path class="cls-1" d="M40.41,32.51a1,1,0,0,0-1,1v6a1,1,0,0,0,2,0v-6A1,1,0,0,0,40.41,32.51Z"/>
        <path class="cls-1" d="M40.41,14.68a1,1,0,0,0,1-1V7.75a1,1,0,0,0-2,0v5.94A1,1,0,0,0,40.41,14.68Z"/>
        <path class="cls-1" d="M48.11,29.9a1,1,0,0,0-1.4,1.4l4.21,4.21a1,1,0,0,0,1.4-1.4Z"/>
        <path class="cls-1" d="M32.7,17.29a1,1,0,0,0,1.4-1.4l-4.2-4.2a1,1,0,0,0-1.4,1.4Z"/>
        <path class="cls-1" d="M48.11,17.29l4.21-4.2a1,1,0,0,0-1.4-1.4l-4.21,4.2A1,1,0,0,0,48.11,17.29Z"/>
        <path class="cls-1" d="M30.91,28.22a.53.53,0,0,0-.75,0L8,50.43c-3.61,3.79,1.82,9.24,5.63,5.62L35.84,33.79a.45.45,0,0,0,0-.64Z"/>
        <path class="cls-1" d="M44.89,19.12a4,4,0,0,0-5.63,0l-7.12,7.12a.45.45,0,0,0,0,.64l4.93,4.93a.53.53,0,0,0,.75,0l7.07-7.06a4,4,0,0,0,0-5.63Zm-1.28,4.35-6.17,6.16-3.07-3.07,6.17-6.16A2.17,2.17,0,0,1,43.61,23.47Z"/>
      </g>
      <rect class="cls-2" x="6.77" y="6.77" width="50.47" height="50.47"/>
    </g>
    <rect class="cls-2" width="64" height="64"/>
  </g>
</svg>
