<svg id="Layer_1" data-name="Layer 1" xmlns="http://www.w3.org/2000/svg" width="64" height="64" viewBox="0 0 64 64">
  <defs>
    <style>
      .cls-1 {
        fill: #333;
      }

      .cls-2 {
        fill: none;
      }
    </style>
  </defs>
  <g>
    <g>
      <path class="cls-1" d="M55,31.52,43.82,25.07a.57.57,0,0,0-.85.49v5H33.49V21h4.95a.57.57,0,0,0,.5-.85L32.49,9a.56.56,0,0,0-1,0L25.06,20.19a.57.57,0,0,0,.5.85h5v9.48H21v-5a.57.57,0,0,0-.85-.49L9,31.52a.56.56,0,0,0,0,1l11.16,6.44a.56.56,0,0,0,.85-.49v-5h9.48V43h-5a.57.57,0,0,0-.5.85l6.41,11.1a.62.62,0,0,0,1.06,0l6.41-11.1a.57.57,0,0,0-.5-.85H33.49V33.5H43v5a.56.56,0,0,0,.85.49L55,32.5A.56.56,0,0,0,55,31.52Z"/>
      <rect class="cls-2" x="8.73" y="8.73" width="46.53" height="46.53"/>
    </g>
    <rect class="cls-2" width="64" height="64"/>
  </g>
</svg>
