<svg id="Layer_1" data-name="Layer 1" xmlns="http://www.w3.org/2000/svg" width="64" height="64" viewBox="0 0 64 64">
  <defs>
    <style>
      .cls-1 {
        fill: #333;
      }

      .cls-2 {
        fill: none;
      }
    </style>
  </defs>
  <g>
    <g>
      <g>
        <path class="cls-1" d="M17.23,41.73l7-9.12a2.3,2.3,0,1,1,3.22,3.22l-9.12,7-4,4,2.62,2.6,21.83-8.22,5.57-10a1.5,1.5,0,0,0-.19-1.92L30.78,15.92a1.53,1.53,0,0,0-1.93-.18l-10,5.58L10.6,43.16l2.6,2.6Z"/>
        <rect class="cls-1" x="37.36" y="7.04" width="10.38" height="20.91" rx="0.49" transform="translate(0.09 35.21) rotate(-45)"/>
        <path class="cls-1" d="M45.31,51.32c-1.84-1.52-6-2.56-15.47,1.17-3.76,1.48-10.06,4-13.77,2.17a5,5,0,0,1-2.9-2.95,5.74,5.74,0,0,1,.61-4.06A1,1,0,0,0,12,46.58a7.74,7.74,0,0,0-.83,5.71,7,7,0,0,0,4,4.24,9.22,9.22,0,0,0,4.07.84c3.87,0,8.21-1.71,11.39-3,9.28-3.65,12.43-2.26,13.35-1.49a2.44,2.44,0,0,1,.75,2.48,1,1,0,0,0,.83,1.22,1,1,0,0,0,1.21-.83A4.51,4.51,0,0,0,45.31,51.32Z"/>
      </g>
      <rect class="cls-2" x="6.63" y="6.63" width="50.73" height="50.73"/>
    </g>
    <rect class="cls-2" width="64" height="64"/>
  </g>
</svg>
