<svg id="Layer_1" data-name="Layer 1" xmlns="http://www.w3.org/2000/svg" width="64" height="64" viewBox="0 0 64 64">
  <defs>
    <style>
      .cls-1 {
        fill: #333;
      }

      .cls-2 {
        fill: none;
      }
    </style>
  </defs>
  <g>
    <g>
      <g>
        <rect class="cls-1" x="43.82" y="7.44" width="9.49" height="15.98" rx="0.5" transform="translate(3.31 38.86) rotate(-45)"/>
        <path class="cls-1" d="M49.17,25.43l-10.6-10.6a.52.52,0,0,0-.35-.14.54.54,0,0,0-.36.14L9.65,43.05h0a.48.48,0,0,0-.19.31l-1.58,7.5s-.84,4-.85,4A16.6,16.6,0,0,0,6.65,57s0,0,0,0a.38.38,0,0,0,.15.2.34.34,0,0,0,.15.09l.06,0a.5.5,0,0,0,.21,0l13.41-2.83a.5.5,0,0,0,.31-.2v0L49.17,26.13A.5.5,0,0,0,49.17,25.43ZM19.71,52.68l-7.36,1.56L9.76,51.65l1.55-7.36a2,2,0,0,1,2.44.05,63.4,63.4,0,0,1,5.91,5.91A2.07,2.07,0,0,1,19.71,52.68ZM22,50.52A3.87,3.87,0,0,0,21.19,49,66.11,66.11,0,0,0,15,42.81,3.75,3.75,0,0,0,13.48,42L38.22,17.31l8.47,8.47Z"/>
      </g>
      <rect class="cls-2" x="6.63" y="6.63" width="50.73" height="50.73"/>
    </g>
    <rect class="cls-2" width="64" height="64"/>
  </g>
</svg>
