<svg id="Layer_1" data-name="Layer 1" xmlns="http://www.w3.org/2000/svg" width="64" height="64" viewBox="0 0 64 64">
  <defs>
    <style>
      .cls-1 {
        fill: #333;
      }

      .cls-2 {
        fill: none;
      }
    </style>
  </defs>
  <g>
    <g>
      <g>
        <path class="cls-1" d="M53.53,20.09H10.47a.46.46,0,0,0-.46.46V47.12a.47.47,0,0,0,.46.46H53.53a.47.47,0,0,0,.46-.46V20.55A.46.46,0,0,0,53.53,20.09ZM52.15,45.74H11.85V36.55c3.87-2.7,10.35-6.69,12.51-6.69s6.84,3.34,11,6.64l3.93,3.31a.92.92,0,0,0,1.21-1.39c-.38-.34-1.72-1.52-3.51-3,2.1-1.26,4.81-2.58,5.89-2.52,1.55.12,6.36,3,9.31,5Z"/>
        <rect class="cls-1" x="22.78" y="50.33" width="18.45" height="8.28" rx="0.46"/>
        <path class="cls-1" d="M18.58,14.14h4.2v2.75a.45.45,0,0,0,.45.46H40.77a.45.45,0,0,0,.45-.46V14.14h4.2a.46.46,0,0,0,.25-.84L32.26,5.49a.45.45,0,0,0-.52,0L18.33,13.3A.46.46,0,0,0,18.58,14.14Z"/>
      </g>
      <rect class="cls-2" x="5.41" y="5.41" width="53.19" height="53.19"/>
    </g>
    <rect class="cls-2" width="64" height="64" transform="translate(64 64) rotate(-180)"/>
  </g>
</svg>
