<svg id="Layer_1" data-name="Layer 1" xmlns="http://www.w3.org/2000/svg" width="64" height="64" viewBox="0 0 64 64">
  <defs>
    <style>
      .cls-1 {
        fill: #333;
      }

      .cls-2 {
        fill: none;
      }
    </style>
  </defs>
  <g>
    <g>
      <g>
        <path class="cls-1" d="M53,49H48.5a1,1,0,0,1,0-2H52V43.5a1,1,0,0,1,2,0V48A1,1,0,0,1,53,49Z"/>
        <path class="cls-1" d="M41.9,49H35.3a1,1,0,0,1,0-2h6.6a1,1,0,1,1,0,2ZM28.7,49H22.1a1,1,0,1,1,0-2h6.6a1,1,0,1,1,0,2Z"/>
        <path class="cls-1" d="M15.5,49H11a1,1,0,0,1-1-1V43.5a1,1,0,0,1,2,0V47h3.5a1,1,0,0,1,0,2Z"/>
        <path class="cls-1" d="M11,39.9a1,1,0,0,1-1-1V34.3a1,1,0,0,1,2,0v4.6A1,1,0,0,1,11,39.9Zm0-9.2a1,1,0,0,1-1-1V25.1a1,1,0,0,1,2,0v4.6A1,1,0,0,1,11,30.7Z"/>
        <path class="cls-1" d="M11,21.5a1,1,0,0,1-1-1V16a1,1,0,0,1,1-1h4.5a1,1,0,0,1,0,2H12v3.5A1,1,0,0,1,11,21.5Z"/>
        <path class="cls-1" d="M41.9,17H35.3a1,1,0,0,1,0-2h6.6a1,1,0,0,1,0,2ZM28.7,17H22.1a1,1,0,0,1,0-2h6.6a1,1,0,1,1,0,2Z"/>
        <path class="cls-1" d="M53,21.5a1,1,0,0,1-1-1V17H48.5a1,1,0,0,1,0-2H53a1,1,0,0,1,1,1v4.5A1,1,0,0,1,53,21.5Z"/>
        <path class="cls-1" d="M53,39.9a1,1,0,0,1-1-1V34.3a1,1,0,0,1,2,0v4.6A1,1,0,0,1,53,39.9Zm0-9.2a1,1,0,0,1-1-1V25.1a1,1,0,1,1,2,0v4.6A1,1,0,0,1,53,30.7Z"/>
      </g>
      <rect class="cls-2" x="10" y="10" width="44" height="44"/>
    </g>
    <rect class="cls-2" width="64" height="64"/>
  </g>
</svg>
