<svg id="Layer_1" data-name="Layer 1" xmlns="http://www.w3.org/2000/svg" width="64" height="64" viewBox="0 0 64 64">
  <defs>
    <style>
      .cls-1 {
        fill: #333;
      }

      .cls-2 {
        fill: none;
      }
    </style>
  </defs>
  <g>
    <g>
      <path class="cls-1" d="M45.84,27.18c-3.74-3-7.45-5.84-12.34-6.22C22.85,20.07,12.29,27.62,10,38.14a.85.85,0,0,0,1.55.68c5.52-8.31,18.18-9.9,25.58-3.18-.11.12-6.63,6.54-6.69,6.6a.89.89,0,0,0-.22,1,.83.83,0,0,0,.83.5H52.72c1,0,1.28-.23,1.28-1.26V21.32c0-.76-.39-1.2-1-1.07a1.55,1.55,0,0,0-.68.43C50.25,22.74,45.94,27.08,45.84,27.18Z"/>
      <rect class="cls-2" x="10" y="10" width="44" height="44"/>
    </g>
    <rect class="cls-2" width="64" height="64" transform="translate(64 64) rotate(-180)"/>
  </g>
</svg>
