<svg id="Layer_1" data-name="Layer 1" xmlns="http://www.w3.org/2000/svg" width="64" height="64" viewBox="0 0 64 64">
  <defs>
    <style>
      .cls-1 {
        fill: #333;
      }

      .cls-2 {
        fill: none;
      }
    </style>
  </defs>
  <g>
    <g>
      <g>
        <path class="cls-1" d="M51.87,41.45c-1-.5-1.46.55-1.83,1.26a1,1,0,0,0,.36,1.38c1,.55,1.54-.54,1.89-1.28A1,1,0,0,0,51.87,41.45Z"/>
        <path class="cls-1" d="M48.07,45.48c-.36.43-.75.86-1.15,1.25a1,1,0,0,0,.71,1.72c.89-.08,1.37-1.09,2-1.67a1,1,0,1,0-1.54-1.3Z"/>
        <path class="cls-1" d="M44.31,48.92c-.46.32-.94.63-1.43.92a1,1,0,0,0,.51,1.88,6.45,6.45,0,0,0,2.08-1.15,1,1,0,0,0,.24-1.41A1,1,0,0,0,44.31,48.92Z"/>
        <path class="cls-1" d="M24.85,51c-.91-.29-2.19-1.51-2.9-.3a1,1,0,0,0,.42,1.36,8.68,8.68,0,0,0,2.09.88A1,1,0,0,0,24.85,51Z"/>
        <path class="cls-1" d="M19.14,47.35a1,1,0,0,0-1.43.07,1,1,0,0,0,.07,1.42c.64.48,1.22,1.31,2,1.41a1,1,0,0,0,.61-1.81C20,48.1,19.55,47.73,19.14,47.35Z"/>
        <path class="cls-1" d="M29.75,52.38c-.95-.05-2.49-.92-2.88.43s1.76,1.37,2.74,1.58A1,1,0,0,0,29.75,52.38Z"/>
        <path class="cls-1" d="M15.83,43.47a1,1,0,0,0-1.68,1.1c.55.66.92,1.85,1.88,1.91a1,1,0,0,0,.79-1.62C16.48,44.41,16.15,44,15.83,43.47Z"/>
        <path class="cls-1" d="M39.8,51.3c-.52.2-1.07.38-1.61.54a1,1,0,0,0,.27,2c1-.28,3.07-.46,2.64-1.92A1,1,0,0,0,39.8,51.3Z"/>
        <path class="cls-1" d="M34.85,52.49c-.93.19-2.65-.27-2.68,1.14a1,1,0,0,0,1,1c1-.1,2.83.23,2.76-1.23A1,1,0,0,0,34.85,52.49Z"/>
        <path class="cls-1" d="M14.22,40.46c-.29-.76-.63-1.85-1.66-1.48a1,1,0,0,0-.59,1.3c.26.64.47,1.61,1.32,1.59A1,1,0,0,0,14.22,40.46Z"/>
        <path class="cls-1" d="M53.31,22.48A23.29,23.29,0,0,0,41.2,11.14c-10.48-4.65-23.78.31-28.84,10.7l-3-1.18a.51.51,0,0,0-.68.55l1.58,10.18a.51.51,0,0,0,.82.32l8-6.46a.51.51,0,0,0-.14-.87L16,23.26C20,14.23,31.13,9.55,40.47,13c10.18,3.7,15.64,16,11.52,26.06a1,1,0,0,0,1.88.73A22,22,0,0,0,53.31,22.48Z"/>
      </g>
      <rect class="cls-2" x="8.49" y="8.49" width="47.03" height="47.03"/>
    </g>
    <rect class="cls-2" width="64" height="64"/>
  </g>
</svg>
