<svg id="Layer_1" data-name="Layer 1" xmlns="http://www.w3.org/2000/svg" width="64" height="64" viewBox="0 0 64 64">
  <defs>
    <style>
      .cls-1 {
        fill: #333;
      }

      .cls-2 {
        fill: none;
      }
    </style>
  </defs>
  <g>
    <path class="cls-1" d="M54.12,13.94a.54.54,0,0,0-.5.33h0l-1.24,3.18s0-.08,0-.13c-1-2.92-2.33-6.93-7.79-7.62h-.11a.9.9,0,0,0-.12,1.8c4.33.56,5.33,3.53,6.3,6.41l.11.33-3.21-1.53h0a.54.54,0,0,0-.6.88,1.13,1.13,0,0,0,.17.12l3.25,1.55,1.7.8a.46.46,0,0,0,.62-.24l2-5.11a1.09,1.09,0,0,0,0-.22A.54.54,0,0,0,54.12,13.94Z"/>
    <path class="cls-1" d="M10,50.42a.56.56,0,0,0,.5-.33h0l1.23-3.19s0,.09,0,.13c1,2.93,2.33,6.93,7.78,7.63h.12a.91.91,0,0,0,.11-1.81c-4.33-.55-5.33-3.53-6.3-6.41,0-.11-.07-.21-.11-.32l3.22,1.53h0a.56.56,0,0,0,.59-.1.54.54,0,0,0,0-.77.8.8,0,0,0-.18-.13L13.8,45.11l-1.7-.81a.45.45,0,0,0-.61.25l-2,5.11a1.1,1.1,0,0,0,0,.21A.55.55,0,0,0,10,50.42Z"/>
    <path class="cls-1" d="M42.48,36.08H8.36V8.36H42.48Zm-31.9-2.21H40.26V10.58H10.58Z"/>
    <path class="cls-1" d="M55.64,55.64H27.92V21.52H55.64ZM30.13,53.42H53.42V23.74H30.13Z"/>
    <rect class="cls-2" width="64" height="64"/>
  </g>
</svg>
