<svg id="Layer_1" data-name="Layer 1" xmlns="http://www.w3.org/2000/svg" width="64" height="64" viewBox="0 0 64 64">
  <defs>
    <style>
      .cls-1 {
        fill: #333;
      }

      .cls-2 {
        fill: none;
      }
    </style>
  </defs>
  <g>
    <g>
      <g>
        <path class="cls-1" d="M15.79,47.74a1.7,1.7,0,0,0,.77.63A1.7,1.7,0,0,1,15.79,47.74Z"/>
        <path class="cls-1" d="M16.56,29a1.84,1.84,0,0,0-.77.63A1.84,1.84,0,0,1,16.56,29Z"/>
        <path class="cls-1" d="M48,48a1.72,1.72,0,0,1-.55.37A1.72,1.72,0,0,0,48,48Z"/>
        <path class="cls-1" d="M47.43,29a1.75,1.75,0,0,1,.55.38A1.75,1.75,0,0,0,47.43,29Z"/>
        <path class="cls-1" d="M43.11,34.53H20.88a1.38,1.38,0,1,0,0,2.76H43.11a1.38,1.38,0,1,0,0-2.76Z"/>
        <path class="cls-1" d="M43.11,40H20.88a1.39,1.39,0,1,0,0,2.77H43.11a1.39,1.39,0,0,0,0-2.77Z"/>
        <path class="cls-1" d="M53.31,16.39l-5.7-5.69A2.28,2.28,0,0,0,46,10H42.32v10.8a1.52,1.52,0,0,1-1.51,1.51H19.71a1.52,1.52,0,0,1-1.51-1.51V10H13a3,3,0,0,0-3,3V51a3,3,0,0,0,3,3H51a3,3,0,0,0,3-3V18A2.36,2.36,0,0,0,53.31,16.39ZM48.49,46.77a1.75,1.75,0,0,1-1.74,1.74H17.23a1.74,1.74,0,0,1-1.73-1.74V30.56a1.78,1.78,0,0,1,.29-1,1.75,1.75,0,0,1,1.44-.76H46.75a1.91,1.91,0,0,1,.68.13,1.75,1.75,0,0,1,1.06,1.6Z"/>
        <path class="cls-1" d="M33.2,19.57h4.56a.47.47,0,0,0,.48-.48V10H32.71v9.07A.48.48,0,0,0,33.2,19.57Z"/>
      </g>
      <rect class="cls-2" x="10" y="10.01" width="43.99" height="43.99"/>
    </g>
    <rect class="cls-2" width="64" height="64" transform="translate(64 64) rotate(-180)"/>
  </g>
</svg>
