<svg id="Layer_1" data-name="Layer 1" xmlns="http://www.w3.org/2000/svg" width="64" height="64" viewBox="0 0 64 64">
  <defs>
    <style>
      .cls-1 {
        fill: #333;
      }

      .cls-2 {
        fill: none;
      }
    </style>
  </defs>
  <g>
    <g>
      <path class="cls-1" d="M57.93,20,47.36,8.55A1,1,0,0,0,46,8.44c-8,6.11-11.17,6.42-14.28,6.73-4.86.4-9,2.35-14.94,6.1-3.44,2.28-3,5.24-1.7,7.31-2,3.16-.47,6.67.74,8.25-.81,2.92.83,5.71,1.53,6.71-4.48,4.71-6.47,5.76-6.5,5.78a1,1,0,0,0-.56.89,3.67,3.67,0,0,0,3.14,3.58H6.78a1,1,0,0,0,0,2H37.43a1,1,0,0,0,0-2H17.06c1.84-.39,3.33-1.41,5.28-3.37,1.21,1.52,1.44,1.84,1.46,1.87a1,1,0,0,0,.85.52c3.45-.35,5.62-4,3.2-8.25l7.2-7.7a4.11,4.11,0,0,1,2.18-1.39c1.59.51-1.52,2.7-2,3.12-4.33,3-3.73,6.67-2.52,8.78a1,1,0,0,0,1.33.44s4.31-2.16,10.08-4.94c1.72-.49,3.75-6.73,5.14-12,.38-.84,4.71-5.46,8.68-9.45A1,1,0,0,0,57.93,20ZM26.54,49.47a3,3,0,0,1-1.44,1.26c-.25-.34-.69-.89-1.37-1.75.48-.53,1.48-1.6,2.69-2.89A3.63,3.63,0,0,1,26.54,49.47ZM47.35,30.19c-1.93,7.17-3.4,10.6-4.13,10.89C39,43.11,35.6,44.8,34,45.57c-.68-1.47-.29-3.59,2.34-5.39,1.47-1.11,3.06-2.41,3.28-3.93a2.5,2.5,0,0,0-2.35-2.76c-1.79-.1-3.55,1.83-3.73,2L21.83,48.1a.73.73,0,0,0-.27.28c-2.82,3-4.08,3.63-6.46,3.63-.41,0-2.31-.07-2.72-1.29,1.68-1.13,6.76-5.14,16.53-17.75a1,1,0,0,0-.18-1.39,1,1,0,0,0-1.39.18c-3.44,4.44-6.28,7.78-8.58,10.29-.74-1.18-2-3.79-.39-6,.9-1.13,6.24-7.27,6.3-7.33a1,1,0,0,0-1.5-1.31c-.22.25-5.17,5.94-6.3,7.33a5,5,0,0,1,.06-5.34c.88-1.11,4-4.22,4.05-4.26a1,1,0,0,0-1.4-1.4c-.1.09-1.81,1.8-3.1,3.18-1-2.31.49-3.36,1.35-4a44.94,44.94,0,0,1,10.76-5.3c6.75-1.38,7.86.28,17.92-7.11l9.32,10.11C53,23.54,47.77,28.91,47.35,30.19Z"/>
      <rect class="cls-2" x="5.81" y="5.81" width="52.38" height="52.38"/>
    </g>
    <rect class="cls-2" width="64" height="64"/>
  </g>
</svg>
