<svg id="Layer_1" data-name="Layer 1" xmlns="http://www.w3.org/2000/svg" width="64" height="64" viewBox="0 0 64 64">
  <defs>
    <style>
      .cls-1 {
        fill: #333;
      }

      .cls-2 {
        fill: none;
      }
    </style>
  </defs>
  <g>
    <g>
      <path class="cls-1" d="M11.08,47.5v9c0,.45-.12.61-.49.61H9.29c-.37,0-.5-.16-.5-.61v-6L8,51.07c-.39.26-.58.15-.76-.25l-.54-1.23A.6.6,0,0,1,7,48.75l2.26-1.61a.89.89,0,0,1,.69-.25h.69C11,46.89,11.08,47.05,11.08,47.5Z"/>
      <path class="cls-1" d="M15.82,46.67c2.09,0,3.3,1.46,3.3,3.76V53.6c0,2.32-1.21,3.77-3.3,3.77s-3.3-1.45-3.3-3.77V50.43C12.52,48.13,13.73,46.67,15.82,46.67Zm0,2.53a1,1,0,0,0-1,1.11v3.4c0,.72.39,1.13,1,1.13s1-.41,1-1.13v-3.4A1,1,0,0,0,15.82,49.2Z"/>
      <path class="cls-1" d="M23.6,46.67c2.09,0,3.3,1.46,3.3,3.76V53.6c0,2.32-1.21,3.77-3.3,3.77s-3.29-1.45-3.29-3.77V50.43C20.31,48.13,21.51,46.67,23.6,46.67Zm0,2.53a1,1,0,0,0-1,1.11v3.4c0,.72.38,1.13,1,1.13s1-.41,1-1.13v-3.4A1,1,0,0,0,23.6,49.2Z"/>
      <path class="cls-1" d="M30,46.67c1.35,0,2.06.87,2.06,2.26V50a2.06,2.06,0,1,1-4.11,0V48.93C27.93,47.54,28.64,46.67,30,46.67Zm6.71.8-5.36,9.15c-.28.46-.39.53-1,.53H29.31c-.34,0-.42-.29-.24-.61l5.38-9.15c.25-.44.37-.5.9-.5h1.11C36.78,46.89,36.87,47.16,36.69,47.47ZM30,48.54c-.33,0-.49.18-.49.52v.81c0,.34.16.53.49.53s.49-.19.49-.53v-.81C30.47,48.72,30.31,48.54,30,48.54Zm5.75,3.23c1.34,0,2.06.87,2.06,2.27v1.09a2.07,2.07,0,1,1-4.12,0V54C33.67,52.64,34.39,51.77,35.73,51.77Zm0,1.88c-.33,0-.49.18-.49.52V55c0,.33.16.52.49.52s.49-.19.49-.52v-.81C36.23,53.83,36.07,53.65,35.74,53.65Z"/>
    </g>
    <rect class="cls-2" width="64" height="64"/>
    <g>
      <polygon points="46.52 39.74 46.52 39.74 46.52 39.73 46.52 39.74"/>
      <path class="cls-1" d="M11.68,36.05a17.22,17.22,0,0,0,21,2.58L50.2,56.14a4.2,4.2,0,0,0,5.94-5.94L38.63,32.7a17.22,17.22,0,1,0-26.95,3.35ZM13,34.7a15.32,15.32,0,1,1,21.67,0A15.31,15.31,0,0,1,13,34.7Z"/>
      <rect class="cls-2" x="6.63" y="6.63" width="50.73" height="50.73" transform="translate(64 64) rotate(-180)"/>
    </g>
    <rect class="cls-2" width="64" height="64"/>
  </g>
</svg>
