<?xml version="1.0" encoding="UTF-8" standalone="no"?>
<svg
   xmlns:dc="http://purl.org/dc/elements/1.1/"
   xmlns:cc="http://creativecommons.org/ns#"
   xmlns:rdf="http://www.w3.org/1999/02/22-rdf-syntax-ns#"
   xmlns:svg="http://www.w3.org/2000/svg"
   xmlns="http://www.w3.org/2000/svg"
   xmlns:sodipodi="http://sodipodi.sourceforge.net/DTD/sodipodi-0.dtd"
   xmlns:inkscape="http://www.inkscape.org/namespaces/inkscape"
   width="1792"
   height="1792"
   viewBox="0 0 1792 1792"
   id="svg5417"
   version="1.1"
   inkscape:version="0.91+devel r14842"
   sodipodi:docname="lock-alpha-source.svg">
  <metadata
     id="metadata5425">
    <rdf:RDF>
      <cc:Work
         rdf:about="">
        <dc:format>image/svg+xml</dc:format>
        <dc:type
           rdf:resource="http://purl.org/dc/dcmitype/StillImage" />
        <dc:title />
      </cc:Work>
    </rdf:RDF>
  </metadata>
  <defs
     id="defs5423">
    <pattern
       patternUnits="userSpaceOnUse"
       width="175.49957"
       height="175.49957"
       patternTransform="translate(-470.30652,194.74991)"
       id="pattern3425">
      <rect
         transform="scale(1,-1)"
         y="-174.99957"
         x="0.5"
         height="174.49957"
         width="174.49957"
         id="rect3393"
         style="fill:#000000;fill-rule:evenodd;stroke:#000000;stroke-width:1px;stroke-linecap:butt;stroke-linejoin:miter;stroke-opacity:1" />
    </pattern>
  </defs>
  <sodipodi:namedview
     pagecolor="#ffffff"
     bordercolor="#666666"
     borderopacity="1"
     objecttolerance="10"
     gridtolerance="10"
     guidetolerance="10"
     inkscape:pageopacity="0"
     inkscape:pageshadow="2"
     inkscape:window-width="1920"
     inkscape:window-height="1076"
     id="namedview5421"
     showgrid="false"
     showguides="true"
     inkscape:guide-bbox="true"
     inkscape:snap-bbox="false"
     inkscape:snap-midpoints="true"
     inkscape:zoom="0.11313709"
     inkscape:cx="282.22066"
     inkscape:cy="1135.3452"
     inkscape:window-x="0"
     inkscape:window-y="1"
     inkscape:window-maximized="1"
     inkscape:current-layer="svg5417" />
  <path
     style="fill:#000000;fill-opacity:1"
     d="m -10.038927,-7.9882687 0,904.7050687 907.306607,0 0,904.707 907.39062,0 0,-904.707 -907.30663,0 0,-904.7050687 -907.390597,0 z"
     id="rect3402"
     inkscape:connector-curvature="0" />
  <g
     id="g102"
     transform="translate(-14)">
    <path
       transform="translate(14,-20)"
       d="m 907.45898,202.65625 c -134.5375,-1e-5 -262.66017,53.8281 -357.93554,149.10352 -95.27538,95.27538 -149.10352,223.39805 -149.10352,357.93554 v 25.57617 c -9.41594,6.82347 -18.38059,14.35715 -26.71875,22.69532 -45.121,45.12077 -70.28515,106.76185 -70.28515,169.99023 v 436.52147 c 0,63.2289 25.16482,124.8698 70.28515,169.9903 45.1209,45.1208 106.76202,70.2851 169.99024,70.2851 h 727.53709 c 63.2308,0 124.8701,-25.1666 169.9883,-70.2851 45.1145,-45.1147 70.2871,-106.7526 70.2871,-169.9903 V 927.95703 c 0,-63.23714 -25.1717,-124.87525 -70.2871,-169.99023 -8.3384,-8.33848 -17.3019,-15.87327 -26.7188,-22.69727 v -25.57422 c 0,-134.53545 -53.8252,-262.65904 -149.1015,-357.93554 -95.2764,-95.27608 -223.4002,-149.10352 -357.93752,-149.10352 z m -11.60351,478.95703 c 0.2769,-0.11636 1.30301,1.59375 11.60351,1.59375 18.72498,0 7.04388,-5.47153 15.69336,4.47461 h -31.38476 c 3.8925,-4.47619 3.86137,-5.97317 4.08789,-6.06836 z"
       id="path4253"
       style="fill:#ffffff"
       inkscape:original="M 907.45898 260.10938 C 788.17447 260.10937 674.92068 307.61249 590.14844 392.38477 C 505.37618 477.15703 457.87305 590.41082 457.87305 709.69531 L 457.87305 767.15039 C 441.60349 775.61891 426.66878 786.24917 414.32617 798.5918 C 381.644 831.27381 360.86914 882.06887 360.86914 927.95703 L 360.86914 1364.4785 C 360.86914 1410.3667 381.64457 1461.1621 414.32617 1493.8438 C 447.00828 1526.5259 497.80356 1547.3008 543.69141 1547.3008 L 1271.2285 1547.3008 C 1317.1163 1547.3008 1367.9131 1526.5228 1400.5918 1493.8438 C 1433.27 1461.1655 1454.0508 1410.3736 1454.0508 1364.4785 L 1454.0508 927.95703 C 1454.0508 882.06194 1433.2706 831.27031 1400.5918 798.5918 C 1388.2495 786.24936 1373.3158 775.61941 1357.0449 767.15039 L 1357.0449 709.69531 C 1357.0449 590.41223 1309.5443 477.15772 1224.7715 392.38477 C 1139.9984 307.61194 1026.7435 260.10938 907.45898 260.10938 z M 907.45898 625.75391 C 935.05558 625.75391 947.24297 630.79566 966.80078 650.35352 C 986.36002 669.91274 991.40234 682.10143 991.40234 709.69531 L 991.40234 745.13477 L 823.51758 745.13477 L 823.51758 709.69531 C 823.51758 682.10154 828.55986 669.9128 848.11914 650.35352 C 867.67846 630.79419 879.86248 625.75391 907.45898 625.75391 z "
       inkscape:radius="57.452419"
       sodipodi:type="inkscape:offset" />
    <path
       style="fill:#000000"
       id="path4"
       d="M 727.45006,835.20255 H 1115.47 V 689.69506 q 0,-80.33222 -56.839,-137.17107 -56.8387,-56.83886 -137.17098,-56.83886 -80.33225,0 -137.17111,56.83886 -56.83884,56.83885 -56.83884,137.17107 v 145.50749 z m 630.53224,72.75374 v 436.52241 q 0,30.3141 -21.2198,51.5339 -21.2198,21.2199 -51.534,21.2199 H 557.69138 q -30.31406,0 -51.5339,-21.2199 -21.21984,-21.2198 -21.21984,-51.5339 V 907.95629 q 0,-30.31413 21.21984,-51.53388 21.21984,-21.21986 51.5339,-21.21986 h 24.25125 V 689.69506 q 0,-139.44462 100.03638,-239.48101 100.03634,-100.03637 239.481,-100.03637 139.44459,0 239.48109,100.03637 100.0363,100.03639 100.0363,239.48101 v 145.50749 h 24.2511 q 30.3142,0 51.534,21.21986 21.2198,21.21975 21.2198,51.53388 z"
       inkscape:connector-curvature="0" />
  </g>
</svg>
