<!--?xml version="1.0" encoding="utf-8"?-->
<!-- Generator: Adobe Illustrator 18.0.0, SVG Export Plug-In . SVG Version: 6.00 Build 0)  -->

<svg version="1.1" id="_x32_" xmlns="http://www.w3.org/2000/svg" xmlns:xlink="http://www.w3.org/1999/xlink" x="0px" y="0px" viewBox="0 0 512 512" style="opacity: 1;" xml:space="preserve" width="12px" height="12px">
<style type="text/css">
	.st0{fill:#FFFFFF;}
</style>
<g>
	<path class="st0" d="M438.272,0H73.728C33.01,0,0,33.009,0,73.728v364.544C0,478.991,33.01,512,73.728,512h364.543
		C478.99,512,512,478.991,512,438.272V73.728C512,33.009,478.99,0,438.272,0z M347.82,137.89l-33.289,0.015
		c-26.1,0-31.154,12.403-31.154,30.604v40.135h62.25l-8.105,62.864h-54.145V432.81h-64.916V271.508H164.18v-62.864h54.281v-46.36
		c0-53.8,32.858-83.096,80.852-83.096c22.99,0,42.748,1.712,48.508,2.477V137.89z" style="fill: rgb(255, 255, 255);"></path>
</g>
</svg>
