<svg xmlns="http://www.w3.org/2000/svg" xmlns:xlink="http://www.w3.org/1999/xlink" width="200" height="200" viewBox="0 0 52.9 52.9"><defs><linearGradient id="c"><stop offset="0" stop-color="#4d00fb"/><stop offset="1" stop-color="#d600ed"/></linearGradient><linearGradient id="b"><stop offset="0" stop-color="#fdfc13"/><stop offset="1" stop-color="#ffe802"/></linearGradient><linearGradient id="a"><stop offset="0" stop-color="#00f8ff"/><stop offset="1" stop-color="#39a3ff"/></linearGradient><linearGradient xlink:href="#a" id="h" x1="26.5" x2="26.5" y1="247.7" y2="267.1" gradientUnits="userSpaceOnUse"/><linearGradient xlink:href="#b" id="i" x1="32.4" x2="49.1" y1="270.5" y2="270.5" gradientUnits="userSpaceOnUse"/><linearGradient xlink:href="#c" id="j" x1="12" x2="12" y1="260.1" y2="281" gradientUnits="userSpaceOnUse"/><linearGradient xlink:href="#d" id="m" x1="95.9" x2="95.9" y1="82.1" y2="143.2" gradientTransform="translate(-13.3 -28.5) scale(.50879)" gradientUnits="userSpaceOnUse" patternTransform="translate(-13.3px,-28.5px)scale(.50879)"/><linearGradient id="d"><stop offset="0" stop-color="#111"/><stop offset="1" stop-color="#6a6a6a"/></linearGradient><linearGradient xlink:href="#e" id="n" x1="56.7" x2="56.7" y1="137.5" y2="84" gradientTransform="translate(-1 -32.3) scale(.52924)" gradientUnits="userSpaceOnUse" patternTransform="translate(-1px,-32.3px)scale(.52924)"/><linearGradient id="e"><stop offset="0" stop-color="#c7c7c7"/><stop offset="1" stop-color="#444"/></linearGradient><linearGradient xlink:href="#f" id="k" x1="105.9" x2="105.9" y1="139" y2="154.7" gradientTransform="translate(-24.4 214.3) scale(.52924)" gradientUnits="userSpaceOnUse" patternTransform="translate(-24.4px,214.3px)scale(.52924)"/><linearGradient id="f"><stop offset="0" stop-color="#23005f"/><stop offset="1" stop-color="#2d00b0"/></linearGradient><linearGradient xlink:href="#g" id="l" x1="90.5" x2="90.5" y1="131" y2="115.7" gradientTransform="translate(-7.7 214.2) scale(.52924)" gradientUnits="userSpaceOnUse" patternTransform="translate(-7.7px,214.2px)scale(.52924)"/><linearGradient id="g"><stop offset="0" stop-color="#38da00"/><stop offset="1" stop-color="#ffaea2"/></linearGradient></defs><path fill="url(#h)" d="M26.5 244.4 4.9 256.8l15.7 9h11.8l15.6-9Z" transform="translate(0 -244)"/><path d="m49.1 258.8-16.7 9.6-3 2.1 3 2.2 16.7 9.6Z" style="fill:url(#i)" transform="translate(0 -244)"/><path d="M3.8 258.8v23.5l16.8-9.7 2.9-2-2.9-2.1Z" style="fill:url(#j)" transform="translate(0 -244)"/><path d="M48 284.3H5l21.5 12.4Z" style="fill:url(#k)" transform="translate(0 -244)"/><path d="M48 284.3s-5.2 3.5-21.5 3.5c-16 0-21.6-3.5-21.6-3.5l21.6-12.6Z" style="fill:url(#l)" transform="translate(0 -244)"/><path d="m20.6 7 10.7 1.3 1.1 37.2H20.6Z" style="fill:url(#m)"/><path d="M20.6 7c0 7.9 11.8 31.4 11.8 38.5V7Z" style="fill:url(#n)"/></svg>