<svg viewBox="0 0 24 26.667" xmlns="http://www.w3.org/2000/svg" xmlns:xlink="http://www.w3.org/1999/xlink"><path d="m18.758 6.338-2.43 2.43-5.936-5.935a.475.475 0 0 0-.672 0l-8.353 8.353a.475.475 0 0 0 0 .672L13.669 24.16a.475.475 0 0 0 .672 0l8.353-8.353a.475.475 0 0 0 0-.672L17.16 9.602l2.431-2.431zm-8.702-2.496L21.685 15.47l-7.68 7.68-11.63-11.629z" fill="#8f8f8f"/><circle id="d" transform="rotate(45)" cx="9.427" cy="-4.566" r="1.405"/><use id="c" transform="translate(-8.085 7.923)" width="100%" height="100%" xlink:href="#d"/><use id="b" transform="translate(12.302 12.302)" width="100%" height="100%" xlink:href="#c"/><use id="a" transform="translate(8.058 -8.111)" width="100%" height="100%" xlink:href="#b"/><use transform="translate(-3.008 -8.864)" width="100%" height="100%" xlink:href="#a"/></svg>