<svg xmlns="http://www.w3.org/2000/svg" viewBox="0 0 24 26.667"><path fill="#fff" d="M0 0h24v26.667H0Z"/><path fill="#c9c9c9" d="M15.001 0v3h3V0Zm3 3v2.998H21V3ZM21 3h3V0h-3Zm0 2.998v3h3v-3Zm0 3h-2.998v2.998H21Zm0 2.998v3h3v-3Zm0 3h-2.998v2.998H21Zm0 2.998v3h3v-3Zm0 3h-2.998v2.998H21Zm0 2.998v3h3v-3Zm-2.998 0h-3v3h3Zm-3 0v-2.998h-2.998v2.998Zm0-2.998h3v-3h-3Zm0-3v-2.998h-2.998v2.998Zm0-2.998h3v-3h-3Zm0-3V8.998h-2.998v2.998Zm0-2.998h3v-3h-3Zm0-3V3h-2.998v2.998Z"/><path fill="#2185ff" d="M11.963 2.26A11.215 11.215 0 0 0 .747 13.475 11.215 11.215 0 0 0 11.963 24.69l.028-.002V2.264l-.028-.002Z"/><path fill-opacity=".6" d="M12.019 2.26a11.215 11.215 0 0 1 11.216 11.214A11.215 11.215 0 0 1 12.019 24.69l-.028-.002V2.264l.028-.002Z"/></svg>