<svg viewBox="0 0 24 26.667" xmlns="http://www.w3.org/2000/svg"><path fill="#fff" d="M0 0h24v26.667H0z"/><path d="M15.001 0v3h3V0zm3 3v2.998H21V3zM21 3h3V0h-3zm0 2.998v3h3v-3zm0 3h-2.998v2.998H21zm0 2.998v3h3v-3zm0 3h-2.998v2.998H21zm0 2.998v3h3v-3zm0 3h-2.998v2.998H21zm0 2.998v3h3v-3zm-2.998 0h-3v3h3zm-3 0v-2.998h-2.998v2.998zm0-2.998h3v-3h-3zm0-3v-2.998h-2.998v2.998zm0-2.998h3v-3h-3zm0-3V8.998h-2.998v2.998zm0-2.998h3v-3h-3zm0-3V3h-2.998v2.998z" fill="#c9c9c9"/><path d="M11.963 2.26A11.215 11.215 0 0 0 .747 13.476 11.215 11.215 0 0 0 11.963 24.69a11.215 11.215 0 0 0 .028-.002V2.264a11.215 11.215 0 0 0-.028-.002z" fill="#2185ff"/><path d="M12.019 2.26a11.215 11.215 0 0 1 11.216 11.215A11.215 11.215 0 0 1 12.019 24.69a11.215 11.215 0 0 1-.028-.002V2.264a11.215 11.215 0 0 1 .028-.002z" fill-opacity=".6"/></svg>