<svg viewBox="0 0 24 26.667" xmlns="http://www.w3.org/2000/svg"><circle cx="11.992" cy="13.46" r="10.194" fill="none" opacity=".75" stroke="#000" stroke-linecap="round" stroke-linejoin="round" stroke-width="2.222"/><path d="M11.922 6.564a6.939 6.939 0 0 0-6.94 6.938 6.939 6.939 0 0 0 6.94 6.94 6.939 6.939 0 0 0 .084-.004V6.568a6.939 6.939 0 0 0-.084-.003z" opacity=".75"/><path d="M12.09 6.564a6.939 6.939 0 0 1 6.94 6.938 6.939 6.939 0 0 1-6.94 6.94 6.939 6.939 0 0 1-.084-.004V6.568a6.939 6.939 0 0 1 .084-.003z" fill="#fff" opacity=".75"/></svg>