<svg xmlns="http://www.w3.org/2000/svg" xmlns:xlink="http://www.w3.org/1999/xlink" viewBox="0 0 24 26.667"><path fill="#8f8f8f" d="m18.758 6.338-2.43 2.43-5.936-5.935a.475.475 0 0 0-.672 0l-8.353 8.353a.475.475 0 0 0 0 .672L13.669 24.16a.475.475 0 0 0 .672 0l8.353-8.353a.475.475 0 0 0 0-.672L17.16 9.602l2.431-2.431Zm-8.702-2.496L21.685 15.47l-7.68 7.68-11.63-11.629Z"/><circle id="d" cx="9.427" cy="-4.566" r="1.405" transform="rotate(45)"/><use xlink:href="#d" id="c" width="100%" height="100%" transform="translate(-8.085 7.924)"/><use xlink:href="#c" id="b" width="100%" height="100%" transform="translate(12.302 12.302)"/><use xlink:href="#b" id="a" width="100%" height="100%" transform="translate(8.058 -8.112)"/><use xlink:href="#a" width="100%" height="100%" transform="translate(-3.008 -8.864)"/></svg>