<svg xmlns="http://www.w3.org/2000/svg" viewBox="0 0 24 26.7"><path fill="#fff" d="M0 0h24v26.7H0Z"/><path fill="#c9c9c9" d="M15 0v3h3V0Zm3 3v3h3V3Zm3 0h3V0h-3Zm0 3v3h3V6Zm0 3h-3v3h3Zm0 3v3h3v-3Zm0 3h-3v3h3Zm0 3v3h3v-3Zm0 3h-3v3h3Zm0 3v3h3v-3Zm-3 0h-3v3h3Zm-3 0v-3h-3v3Zm0-3h3v-3h-3Zm0-3v-3h-3v3Zm0-3h3v-3h-3Zm0-3V9h-3v3Zm0-3h3V6h-3Zm0-3V3h-3v3Z"/><path fill="#2185ff" d="M12 2.3A11.2 11.2 0 0 0 .7 13.5 11.2 11.2 0 0 0 12 24.7Z"/><path fill-opacity=".6" d="M12 2.3a11.2 11.2 0 0 1 11.2 11.2A11.2 11.2 0 0 1 12 24.7Z"/></svg>