<svg xmlns="http://www.w3.org/2000/svg" xmlns:xlink="http://www.w3.org/1999/xlink" viewBox="0 0 24 26.7"><path fill="#8f8f8f" d="m18.8 6.3-2.5 2.5-6-6a.5.5 0 0 0-.6 0l-8.3 8.4a.5.5 0 0 0 0 .7l12.3 12.3a.5.5 0 0 0 .6 0l8.4-8.4a.5.5 0 0 0 0-.7l-5.5-5.5 2.4-2.4ZM10 3.8l11.6 11.7-7.7 7.7L2.4 11.5Z"/><circle id="a" cx="9.4" cy="-4.6" r="1.4" transform="rotate(45)"/><use xlink:href="#a" id="b" width="100%" height="100%" transform="translate(-8 8)"/><use xlink:href="#b" id="c" width="100%" height="100%" transform="translate(12.3 12.3)"/><use xlink:href="#c" id="d" width="100%" height="100%" transform="translate(8 -8.1)"/><use xlink:href="#d" width="100%" height="100%" transform="translate(-3 -8.9)"/></svg>