<svg viewBox="0 0 85.333 85.333" xmlns="http://www.w3.org/2000/svg"><path d="M42.758 1.379c-22.851 0-41.469 18.618-41.469 41.469 0 22.85 18.618 41.469 41.469 41.469 22.851 0 41.469-18.618 41.469-41.47 0-22.85-18.618-41.468-41.469-41.468zm0 8.7c18.149 0 32.768 14.62 32.768 32.77 0 18.148-14.618 32.77-32.768 32.77-18.149 0-32.77-14.62-32.77-32.77 0-18.15 14.62-32.77 32.77-32.77zm.445 10.353c-3.125-.029-6.239.64-8.705 2.28-3.886 2.567-4.86 6.87-5.021 10.753 2.462.036 4.925-.026 7.386-.08.036-1.63.303-3.29 1.122-4.787 1.59-3.06 7.246-3.386 9.716-.933 2.223 2.429 1.388 5.421-.326 7.933-1.683 2.123-3.744 4.402-5.574 6.442-3.062 2.974-2.97 7.227-2.986 10.94h7.48c.219-4.545-.878-5.392 6.735-12.864 2.582-2.778 3.974-7.022 3.398-10.486-.386-3.723-3.303-7.311-7.725-8.45a22.525 22.525 0 0 0-5.5-.748zm-4.568 36.102v7.522h7.685v-7.522h-7.685z" fill="#727272"/></svg>