<svg viewBox="0 0 26.667 26.667" xmlns="http://www.w3.org/2000/svg"><path d="M10.875.871a1.05 1.05 0 0 0-1.049 1.05V2.2H5.848a1.05 1.05 0 0 0-1.051 1.049v.877a1.05 1.05 0 0 0 1.05 1.049h14.21a1.05 1.05 0 0 0 1.05-1.049v-.877a1.05 1.05 0 0 0-1.05-1.049h-3.838v-.277A1.05 1.05 0 0 0 15.17.872h-4.295zM6.158 6.295a1.05 1.05 0 0 0-1.05 1.049v16.752a1.05 1.05 0 0 0 1.05 1.05h13.87a1.05 1.05 0 0 0 1.05-1.05V7.344a1.05 1.05 0 0 0-1.05-1.05H6.157zM8.65 7.914a1.5 1.5 0 0 1 1.522 1.521v12.627a1.5 1.5 0 1 1-3 0V9.435A1.5 1.5 0 0 1 8.65 7.914zm4.547 0a1.5 1.5 0 0 1 1.524 1.521v12.627a1.5 1.5 0 1 1-3 0V9.435a1.5 1.5 0 0 1 1.476-1.521zm4.576 0a1.5 1.5 0 0 1 1.524 1.521v12.627a1.5 1.5 0 1 1-3 0V9.435a1.5 1.5 0 0 1 1.476-1.521z" fill="#4f4f4f"/></svg>