<svg viewBox="0 0 85.333 85.333" xmlns="http://www.w3.org/2000/svg"><path d="M62.916 5.606a11.571 11.571 0 0 0-11.572 11.57 11.571 11.571 0 0 0 .156 1.851L27.096 34.088a11.571 11.571 0 0 0-7.842-3.082 11.571 11.571 0 0 0-11.57 11.57 11.571 11.571 0 0 0 11.57 11.57 11.571 11.571 0 0 0 8.3-3.523l24.42 14.924a11.571 11.571 0 0 0-.358 2.793 11.571 11.571 0 0 0 11.57 11.57 11.571 11.571 0 0 0 11.572-11.57 11.571 11.571 0 0 0-11.572-11.572 11.571 11.571 0 0 0-7.465 2.748L30.694 44.22a11.571 11.571 0 0 0 .13-1.645 11.571 11.571 0 0 0-.241-2.297l24.17-14.916a11.571 11.571 0 0 0 8.164 3.383 11.571 11.571 0 0 0 11.57-11.57 11.571 11.571 0 0 0-11.57-11.57z" fill="#4f4f4f"/></svg>