<svg viewBox="0 0 85.333 85.333" xmlns="http://www.w3.org/2000/svg"><path d="M42.621 1.283c-22.832 0-41.428 18.595-41.428 41.428 0 22.832 18.595 41.43 41.428 41.43s41.43-18.597 41.43-41.43c0-22.832-18.597-41.428-41.43-41.428zm0 8.1c18.455 0 33.328 14.873 33.328 33.328 0 18.455-14.873 33.33-33.328 33.33S9.293 61.166 9.293 42.71 24.166 9.383 42.621 9.383zm-18.848 27.61a2.6 2.6 0 0 0-2.6 2.6v4.7a2.6 2.6 0 0 0 2.6 2.601h36.25a2.6 2.6 0 0 0 2.6-2.601v-4.7a2.6 2.6 0 0 0-2.6-2.6z" fill="#4f4f4f"/></svg>