<svg viewBox="0 0 80 80" xmlns="http://www.w3.org/2000/svg"><path d="M65.854 4.898c-2.05-.015-4.03.568-5.09 1.627L49.366 17.923c-2.457 2.458-3.772 2.33-5.806 2.16-2.034-.169-4.323-1.525-4.323-1.525l-3.982 3.985L56.61 44.236l3.814-3.813s-.931-1.864-1.609-3.898c-.678-2.034-.254-3.814 2.627-6.696l11.482-11.482c3.898-3.898 1.101-8.812-1.568-11.482-1.335-1.334-3.453-1.95-5.502-1.966zM34.969 32.003 7.893 59.08a2.5 2.5 0 0 0-.732 1.768v5.316l-2.157 4.854a2.5 2.5 0 0 0 3.159 3.36l4.916-1.835h5.863a2.5 2.5 0 0 0 1.767-.732l26.906-26.906-3.535-3.537-26.176 26.176h-5.277a2.5 2.5 0 0 0-.65.09 2.5 2.5 0 0 0 .183-.938v-4.812l26.346-26.344-3.537-3.536z"/></svg>