<svg viewBox="0 0 49.548 49.548" xmlns="http://www.w3.org/2000/svg"><path d="M19.15 48.311c-.255-.255-.288-.92-.073-1.478.22-.576-3.16-4.615-7.826-9.35-4.724-4.793-8.117-8.854-7.985-9.555.38-2.006 4.135-1.87 7.807.28 1.862 1.092 3.79 1.985 4.285 1.985 1.626 0 .952-5.335-1.466-11.604-2.831-7.343-3.578-11.206-2.316-11.986 1.479-.914 3.806 1.847 6.704 7.954 1.496 3.153 2.881 5.572 3.078 5.375.197-.196-.05-3.68-.55-7.74-.956-7.78-.7-9.87 1.212-9.87 1.731 0 3.23 3.541 4.26 10.066.504 3.193 1.116 6.329 1.36 6.967.732 1.917 1.616-2.127 1.702-7.787.084-5.523 1.352-8.264 3.45-7.46 1.074.413 1.276 1.847 1.297 9.223.02 7.335.186 8.522 1.031 7.409.554-.73 1.433-3.228 1.953-5.553.964-4.306 2.471-6.429 3.925-5.53 1.131.699.986 5.378-.338 10.86-.616 2.555-1.134 7.332-1.149 10.616-.019 4.091-.515 7.208-1.576 9.9-.851 2.16-1.548 4.786-1.548 5.834v1.907H28c-4.613 0-8.596-.208-8.85-.462z" fill="#515151"/></svg>