<svg xmlns="http://www.w3.org/2000/svg" version="1.1" viewBox="0 0 64 64" id="svg4"><path style="color:#000;font-style:normal;font-variant:normal;font-weight:400;font-stretch:normal;font-size:medium;line-height:normal;font-family:sans-serif;font-variant-ligatures:normal;font-variant-position:normal;font-variant-caps:normal;font-variant-numeric:normal;font-variant-alternates:normal;font-feature-settings:normal;text-indent:0;text-align:start;text-decoration:none;text-decoration-line:none;text-decoration-style:solid;text-decoration-color:#000;letter-spacing:normal;word-spacing:normal;text-transform:none;writing-mode:lr-tb;direction:ltr;text-orientation:mixed;dominant-baseline:auto;baseline-shift:baseline;text-anchor:start;white-space:normal;shape-padding:0;clip-rule:nonzero;display:inline;overflow:visible;visibility:visible;opacity:1;isolation:auto;mix-blend-mode:normal;color-interpolation:sRGB;color-interpolation-filters:linearRGB;solid-color:#000;solid-opacity:1;vector-effect:none;fill:#1c1c1c;fill-opacity:1;fill-rule:nonzero;stroke:none;stroke-width:4;stroke-linecap:butt;stroke-linejoin:miter;stroke-miterlimit:4;stroke-dasharray:none;stroke-dashoffset:0;stroke-opacity:1;paint-order:normal;color-rendering:auto;image-rendering:auto;shape-rendering:auto;text-rendering:auto;enable-background:accumulate" d="M40.271 7.29c-9.024 0-16.487 6.877-17.423 15.66H8.033V58h35.051V42.092c8.322-1.355 14.713-8.582 14.713-17.278 0-9.655-7.87-17.525-17.526-17.525zm0 4a13.495 13.495 0 0 1 13.526 13.524A13.495 13.495 0 0 1 40.27 38.34a13.495 13.495 0 0 1-13.525-13.526A13.495 13.495 0 0 1 40.271 11.29zM12.033 26.95H22.89c1.012 8.263 7.805 14.761 16.195 15.33V54h-27.05V26.95z" id="rect837"/></svg>