<svg viewBox="0 0 85.333 85.333" xmlns="http://www.w3.org/2000/svg"><path d="M39.457 1.582 2.82 22.734l36.637 21.152V29.007h26.586c1.119.171 1.563.424 1.768.629.2.2.5.764.716 1.94v38.388c-.07.54-.16.722-.091.657.07-.067-.317.121-1.047.257H30.825v13h37.152a6.5 6.5 0 0 0 .781-.046c3.046-.369 6.228-1.468 8.703-3.856 2.475-2.387 3.79-5.808 4.049-9.146a6.5 6.5 0 0 0 .017-.502V30.824a6.5 6.5 0 0 0-.068-.942c-.509-3.476-1.903-6.887-4.455-9.44-2.552-2.551-6.01-3.95-9.486-4.384a6.5 6.5 0 0 0-.807-.05H39.457V1.58z" fill="#4c4c4c" opacity=".75"/></svg>