<svg width="100" height="100" viewBox="0 0 26.458 26.458" xmlns="http://www.w3.org/2000/svg"><path d="M13.891 10.61q1.397 0 2.118-.614t.721-1.811q0-1.182-.721-1.796-.721-.629-2.118-.629h-3.27v4.85zm.2 10.022q1.78 0 2.67-.752.906-.752.906-2.272 0-1.488-.89-2.225-.89-.752-2.687-.752h-3.468v6.001zm5.494-8.242q1.903.553 2.947 2.041 1.044 1.49 1.044 3.653 0 3.315-2.241 4.942-2.241 1.627-6.815 1.627H4.713V1.74h8.871q4.773 0 6.907 1.443 2.148 1.442 2.148 4.62 0 1.672-.782 2.854-.783 1.167-2.272 1.734z"/></svg>