<svg xmlns="http://www.w3.org/2000/svg" width="100" height="100" viewBox="0 0 26.458 26.458"><path d="M12.91 21.66q-.08.319-.08.574 0 .638.527.845.526.192 1.786.192l-.048.622q-2.073.67-3.222.67-.893 0-1.403-.463-.494-.463-.494-1.403 0-.447.127-1.117l1.914-9.297q.048-.271.08-.463.047-.207.047-.366 0-.431-.366-.606t-1.882-.176l.048-.606q2.169-.733 3.397-.733.813 0 1.26.382.462.367.462 1.165 0 .334-.064.653Zm3.54-18.085q0 .83-.51 1.355-.51.51-1.276.51-.75 0-1.244-.478-.478-.494-.478-1.26 0-.845.51-1.339t1.292-.494q.75 0 1.228.462.479.447.479 1.244"/></svg>