<svg viewBox="0 0 85.333 85.333" xmlns="http://www.w3.org/2000/svg"><path d="M43.058 7.19a4.5 4.5 0 0 0-4.107 2.244L22.09 38.637 5.23 67.84a4.5 4.5 0 0 0 3.897 6.75h67.441a4.5 4.5 0 0 0 3.897-6.75l-16.86-29.203-16.86-29.203a4.5 4.5 0 0 0-3.686-2.244z" fill="#f7d020"/><path d="M40.351 65.036q-1.021-1.052-1.021-2.445t1.021-2.351q1.052-.99 2.445-.99t2.351.99q.99.959.99 2.351t-.99 2.445q-.959 1.021-2.351 1.021t-2.445-1.021zm.464-40.754q.867-1.114 2.228-1.114t2.043 1.114q.68 1.114.68 2.476 0 6.622-2.166 27.974-.371.742-.99.804-.588-.247-.805-.68-1.856-21.353-1.856-28.099 0-1.361.866-2.475z" fill="#fff"/></svg>